<svg xmlns="http://www.w3.org/2000/svg" width="161" height="56.6" viewBox="-138 233.3 161 56.6" enable-background="new -138 233.3 161 56.6"><path d="M-32.1 278.6c-5.4 0-9.9-4.4-9.9-9.9v-3.3c0-5.5 4.4-9.9 9.9-9.9h7.8v-2.9c0-3-2.4-5.4-5.4-5.4h-2.4c-2.1 0-4 1.2-4.9 3.1-.1.2-.2.3-.4.4h-.2c-.1 0-.2 0-.3-.1l-2.7-1.5c-.3-.2-.4-.6-.3-.9 1.7-3.4 5.1-5.5 8.8-5.5h2.4c5.4 0 9.9 4.4 9.9 9.9v16.1c0 5.4-4.4 9.9-9.9 9.9h-2.4zm0-18.6c-3 0-5.4 2.4-5.4 5.4v3.4c0 3 2.4 5.4 5.4 5.4h2.4c3 0 5.4-2.4 5.4-5.4v-8.8h-7.8zm42.8 18.6c-2.7 0-5.1-1-7-3-1.9-1.9-2.9-4.6-2.9-7.5v-16c0-2.4 1.1-4.7 2.9-6.5 1.9-1.8 4.4-2.8 7-2.8h2.4c5.4 0 9.9 4.4 9.9 9.9v2.6c0 5.5-4.4 9.9-9.9 9.9h-7.8v3.5c0 3 2.4 5.4 5.4 5.4h2.4c2 0 3.8-1.1 4.7-2.9.1-.2.2-.3.4-.3h.2c.1 0 .2 0 .3.1l2.7 1.5c.3.2.4.6.3.9-1.7 3.2-5 5.1-8.6 5.1l-2.4.1zm0-31.4c-3 0-5.4 2.4-5.4 5.4v8.2h7.8c3 0 5.4-2.4 5.4-5.4v-2.8c0-3-2.4-5.4-5.4-5.4h-2.4zm-69.4 42.6c-3.6 0-6.9-2-8.7-5.2-.2-.3-.1-.7.3-.9l2.7-1.5c.1-.1.2-.1.3-.1h.2c.2.1.3.2.4.3.9 1.8 2.8 2.9 4.8 2.9h2.4c3 0 5.4-2.4 5.4-5.4v-3l-.2.1c-1.6 1-3.4 1.5-5.2 1.5h-2.4c-5.4 0-9.9-4.4-9.9-9.9v-16c0-5.4 4.4-9.9 9.9-9.9h2.4c5.4 0 9.9 4.4 9.9 9.9v27.4c0 5.4-4.4 9.9-9.9 9.9h-2.4v-.1zm0-42.6c-3 0-5.4 2.4-5.4 5.4v16.1c0 3 2.4 5.4 5.4 5.4h2.4c3 0 5.4-2.4 5.4-5.4v-16.1c0-3-2.4-5.4-5.4-5.4h-2.4zm-53.1 31.4c-2.7 0-5.1-1-7-3-1.9-1.9-2.9-4.6-2.9-7.5v-16c0-2.4 1.1-4.7 2.9-6.5 1.9-1.8 4.4-2.8 7-2.8h2.4c5.4 0 9.9 4.4 9.9 9.9v2.6c0 5.5-4.4 9.9-9.9 9.9h-7.8v3.5c0 3 2.4 5.4 5.4 5.4h2.4c1.8 0 3.5-.9 4.5-2.5.1-.2.4-.3.6-.3.1 0 .2 0 .3.1l2.7 1.5c.2.1.3.2.3.4s0 .4-.1.5c-1.8 3-5 4.7-8.4 4.7l-2.3.1zm0-31.4c-3 0-5.4 2.4-5.4 5.4v8.2h7.8c3 0 5.4-2.4 5.4-5.4v-2.8c0-3-2.4-5.4-5.4-5.4h-2.4zm106.2 31.4c-5.4 0-9.9-4.4-9.9-9.9v-31.6c0-1.1.9-2 2-2h1.7c.4 0 .7.3.7.7v7h6.7c.4 0 .7.3.7.7v3.1c0 .4-.3.7-.7.7h-6.7v21.5c0 3 2.4 5.4 5.4 5.4h2.8c.4 0 .7.3.7.7v3.1c0 .4-.3.7-.7.7h-2.7v-.1zm-79.7 0c-5.4 0-9.8-4.4-9.8-9.9v-16.1c0-5.4 4.4-9.9 9.8-9.9h2.4c1.8 0 3.6.5 5.2 1.5l.2.1v-9c0-1.1.9-2 2-2h1.8c.4 0 .7.3.7.7v34.8c0 5.4-4.4 9.9-9.8 9.9h-2.5v-.1zm0-31.4c-3 0-5.4 2.4-5.4 5.4v16.1c0 3 2.4 5.4 5.4 5.4h2.4c3 0 5.4-2.4 5.4-5.4v-16.1c0-3-2.4-5.4-5.4-5.4h-2.4zm-52 31.4c-.4 0-.7-.3-.7-.7v-25.3c0-5.4 4.4-9.9 9.9-9.9h4.2c.4 0 .7.3.7.7v1.8c0 1.1-.9 2-2 2h-2.9c-3 0-5.4 2.4-5.4 5.4v25.3c0 .4-.3.7-.7.7h-3.1z"/></svg>