<svg id="Layer_1" data-name="Layer 1" xmlns="http://www.w3.org/2000/svg" width="18.93" height="20" viewBox="0 0 18.93 20"><defs><style>.cls-1{fill:#6e6e6e;}</style></defs><title>cog</title><path class="cls-1" d="M17,10a7.53,7.53,0,0,0-.08-1l2-2.19a10,10,0,0,0-2-3.39l-2.91.67a7.48,7.48,0,0,0-1.76-1L11.42.19a10,10,0,0,0-3.91,0L6.63,3.06a7.48,7.48,0,0,0-1.76,1L2,3.41A10,10,0,0,0,0,6.79L2,9A7.53,7.53,0,0,0,2,10,7.53,7.53,0,0,0,2,11L0,13.21a10,10,0,0,0,2,3.39l2.91-.67a7.48,7.48,0,0,0,1.76,1l.88,2.86a10,10,0,0,0,3.91,0l.88-2.86a7.48,7.48,0,0,0,1.76-1l2.91.67a10,10,0,0,0,2-3.39l-2-2.19A7.53,7.53,0,0,0,17,10Zm-7.5,3a3,3,0,1,1,3-3A3,3,0,0,1,9.47,13Z"/></svg>