<?xml version="1.0" encoding="utf-8"?>
<!-- Generator: Adobe Illustrator 19.2.0, SVG Export Plug-In . SVG Version: 6.00 Build 0)  -->
<svg version="1.1" id="Layer_1" xmlns="http://www.w3.org/2000/svg" xmlns:xlink="http://www.w3.org/1999/xlink" x="0px" y="0px"
	 width="22.5px" height="30px" viewBox="0 0 22.5 30" style="enable-background:new 0 0 22.5 30;" xml:space="preserve">
<style type="text/css">
	.st0{fill:#CC0000;}
</style>
<g>
	<g>
		<g>
			<g>
				<polygon class="st0" points="16.1,13.8 9.1,13.7 11.6,16.3 16.1,16.2 				"/>
				<polygon class="st0" points="15.1,20 16.1,19.8 16.1,17.7 13,17.8 				"/>
				<polygon class="st0" points="1.9,21.3 13.2,20.2 11.1,17.9 1.9,18.5 				"/>
				<polygon class="st0" points="6.8,13.6 1.9,13.5 1.9,16.5 9.5,16.3 				"/>
				<polygon class="st0" points="7.4,11.8 16.1,12.3 16.1,10.2 4.6,8.9 				"/>
				<polygon class="st0" points="1.9,8.7 1.9,11.5 4.9,11.7 				"/>
			</g>
			<path class="st0" d="M11.3,2.5c-4.2,0-7.8,0.8-9.4,2v1.9l14.9,2.1h0.1c0,0,0.1,0,0.1,0.1l0.1,0.1l0.1,0.1c0,0,0.1,0.1,0.1,0.2
				s0,0.1,0.1,0.2c0,0.1,0,0.1,0,0.2c0,0.1,0,0.1,0,0.2v11.1c0,0.1,0,0.1,0,0.2s0,0.1,0,0.2s0,0.1-0.1,0.2c0,0.1-0.1,0.1-0.1,0.2
				l-0.1,0.1L17,21.3l-0.1,0.1h-0.1L1.9,23.6v1.9c1.7,1.2,5.3,2,9.4,2s7.7-0.8,9.4-2v-21C19,3.3,15.4,2.5,11.3,2.5z"/>
		</g>
	</g>
</g>
</svg>
