<?xml version="1.0" encoding="utf-8"?>
<!-- Generator: Adobe Illustrator 19.2.0, SVG Export Plug-In . SVG Version: 6.00 Build 0)  -->
<svg version="1.1" id="Layer_1" xmlns="http://www.w3.org/2000/svg" xmlns:xlink="http://www.w3.org/1999/xlink" x="0px" y="0px"
	 width="18.8px" height="25px" viewBox="0 0 18.8 25" style="enable-background:new 0 0 18.8 25;" xml:space="preserve">
<style type="text/css">
	.st0{fill:#FFFFFF;}
</style>
<g>
	<g>
		<g>
			<g>
				<polygon class="st0" points="14.3,11.4 7.2,11.2 9.7,13.8 14.3,13.6 				"/>
				<polygon class="st0" points="13.2,17.5 14.3,17.4 14.3,15.2 11.2,15.3 				"/>
				<polygon class="st0" points="0,18.9 11.4,17.7 9.2,15.5 0,16 				"/>
				<polygon class="st0" points="4.9,11.1 0,11 0,14 7.6,13.8 				"/>
				<polygon class="st0" points="5.5,9.3 14.3,9.8 14.3,7.6 2.8,6.4 				"/>
				<polygon class="st0" points="0,6.1 0,9 3,9.2 				"/>
			</g>
			<path class="st0" d="M9.4,0C5.2,0,1.7,0.8,0,2v1.9L14.9,6c0,0,0.1,0,0.1,0c0,0,0.1,0,0.1,0.1c0,0,0.1,0.1,0.1,0.1
				c0,0,0.1,0.1,0.1,0.1c0,0,0,0.1,0.1,0.1c0,0,0,0.1,0.1,0.2c0,0,0,0.1,0,0.2c0,0.1,0,0.1,0,0.2v11.1c0,0.1,0,0.1,0,0.2
				s0,0.1,0,0.2c0,0,0,0.1-0.1,0.2c0,0,0,0.1-0.1,0.1c0,0-0.1,0.1-0.1,0.1c0,0-0.1,0.1-0.1,0.1c0,0-0.1,0-0.1,0.1c0,0-0.1,0-0.1,0
				L0,21.1V23c1.7,1.2,5.2,2,9.4,2s7.7-0.8,9.4-2V2C17.1,0.8,13.5,0,9.4,0z"/>
		</g>
	</g>
</g>
</svg>
