<?xml version="1.0" standalone="no"?>
<!DOCTYPE svg PUBLIC "-//W3C//DTD SVG 1.1//EN" "http://www.w3.org/Graphics/SVG/1.1/DTD/svg11.dtd" >
<svg xmlns="http://www.w3.org/2000/svg">
<metadata>Generated by IcoMoon</metadata>
<defs>
<font id="redgate-icon-font" horiz-adv-x="1024">
<font-face units-per-em="1024" ascent="960" descent="-64" />
<missing-glyph horiz-adv-x="1024" />
<glyph unicode="&#x20;" horiz-adv-x="512" d="" />
<glyph unicode="&#xe600;" glyph-name="alert" d="M768 371.2v183.467c0 115.2-72.533 209.067-179.2 243.2-8.533 34.133-42.667 55.467-76.8 55.467s-68.267-21.333-76.8-51.2c-106.667-34.133-179.2-132.267-179.2-247.467v-183.467l-115.2-110.933c-8.533-8.533-12.8-17.067-12.8-29.867v-59.733h768v59.733c0 12.8-4.267 21.333-12.8 29.867l-115.2 110.933zM512-0c72.533 0 128 55.467 128 128h-256c0-72.533 55.467-128 128-128z" />
<glyph unicode="&#xe601;" glyph-name="arrow-left" d="M938.667 554.667h-512v162.133c0 17.067-21.333 29.867-38.4 17.067l-302.933-307.2 302.933-302.933c12.8-12.8 38.4-4.267 38.4 17.067v157.867h512v256z" />
<glyph unicode="&#xe602;" glyph-name="arrow-right" d="M938.667 426.667l-302.933 302.933c-17.067 17.067-38.4 4.267-38.4-12.8v-162.133h-512v-256h512v-162.133c0-17.067 21.333-29.867 38.4-17.067l302.933 307.2z" />
<glyph unicode="&#xe603;" glyph-name="bullet" d="M682.667 426.667c0-94.257-76.41-170.667-170.667-170.667s-170.667 76.41-170.667 170.667c0 94.257 76.41 170.667 170.667 170.667s170.667-76.41 170.667-170.667z" />
<glyph unicode="&#xe604;" glyph-name="calendar" d="M768 768v64c-12.8 12.8-38.4 21.333-64 21.333s-51.2-8.533-64-21.333v-64h-256v64c-12.8 12.8-38.4 21.333-64 21.333s-51.2-8.533-64-21.333v-64h-128v-682.667c0-46.933 38.4-85.333 85.333-85.333h597.333c46.933 0 85.333 38.4 85.333 85.333v682.667h-128zM810.667 85.334h-597.333v469.333h597.333v-469.333zM554.667 469.334h170.667v-170.667h-170.667v170.667z" />
<glyph unicode="&#xe605;" glyph-name="chevron-down" d="M213.333 563.627l42.667 42.667c7.712 7.668 18.343 12.407 30.080 12.407s22.368-4.74 30.082-12.409l196.265-196.265 196.267 196.267c7.712 7.668 18.343 12.407 30.080 12.407s22.368-4.74 30.082-12.409l42.665-42.665c3.771-3.845 6.098-9.117 6.098-14.933s-2.327-11.088-6.102-14.937l-298.664-298.664-298.667 298.667c-4.033 3.887-6.537 9.335-6.537 15.368 0 5.605 2.161 10.705 5.696 14.512l-0.012-0.013z" />
<glyph unicode="&#xe606;" glyph-name="chevron-left" d="M648.96 725.334l42.667-42.667c7.668-7.712 12.407-18.343 12.407-30.080s-4.74-22.368-12.409-30.082l-194.558-195.838 196.267-196.267c7.668-7.712 12.407-18.343 12.407-30.080s-4.74-22.368-12.409-30.082l-42.665-42.665c-3.845-3.771-9.117-6.098-14.933-6.098s-11.088 2.327-14.937 6.102l-298.664 298.664 300.8 298.667c3.61 2.895 8.246 4.646 13.29 4.646 4.799 0 9.227-1.584 12.791-4.259l-0.055 0.040z" />
<glyph unicode="&#xe607;" glyph-name="chevron-right" d="M375.040 125.867l-42.667 42.667c-7.668 7.712-12.407 18.343-12.407 30.080s4.74 22.368 12.409 30.082l196.265 196.265-197.973 197.973c-7.542 7.69-12.197 18.235-12.197 29.867s4.655 22.177 12.203 29.874l42.66 42.66c3.845 3.771 9.117 6.098 14.933 6.098s11.088-2.327 14.937-6.102l-0.003 0.003 298.667-300.8-298.667-300.8c-3.535-2.697-8.014-4.321-12.872-4.321-5.993 0-11.408 2.471-15.283 6.45l-0.005 0.005z" />
<glyph unicode="&#xe608;" glyph-name="chevron-up" d="M812.8 289.707l-42.667-42.667c-7.712-7.668-18.343-12.407-30.080-12.407s-22.368 4.74-30.082 12.409l0.002-0.002-197.973 194.56-196.267-196.267c-7.712-7.668-18.343-12.407-30.080-12.407s-22.368 4.74-30.082 12.409l-42.665 42.665c-3.771 3.845-6.098 9.117-6.098 14.933s2.327 11.088 6.102 14.937l-0.003-0.003 300.8 298.667 300.8-300.8c2.275-3.341 3.633-7.466 3.633-11.909 0-5.424-2.025-10.376-5.359-14.14l0.019 0.022z" />
<glyph unicode="&#xe609;" glyph-name="clear-cross-circle" d="M512 853.334c-235.641 0-426.667-191.025-426.667-426.667s191.025-426.667 426.667-426.667c235.641 0 426.667 191.025 426.667 426.667v0c0 235.641-191.025 426.667-426.667 426.667v0zM661.333 217.6l-149.333 149.333-149.333-149.333-59.733 59.733 149.333 149.333-149.333 149.333 59.733 59.733 149.333-149.333 149.333 149.333 59.733-59.733-149.333-149.333 149.333-149.333z" />
<glyph unicode="&#xe60a;" glyph-name="clear-cross" d="M844.8 217.6l-213.333 209.067 213.333 209.067-123.733 123.733-209.067-213.333-209.067 213.333-123.733-123.733 213.333-209.067-213.333-209.067 123.733-123.733 209.067 213.333 209.067-213.333z" />
<glyph unicode="&#xe60b;" glyph-name="comment" d="M853.333 810.667h-682.667c-46.933 0-85.333-38.4-85.333-85.333v-384c0-46.933 38.4-85.333 85.333-85.333h128v-213.333l256 213.333h298.667c46.933 0 85.333 38.4 85.333 85.333v384c0 46.933-38.4 85.333-85.333 85.333z" />
<glyph unicode="&#xe60c;" glyph-name="database" d="M196.267 247.894v-179.627c84.035-43.394 183.417-68.836 288.742-68.836 9.493 0 18.937 0.207 28.329 0.616l-1.338-0.046c8.054-0.363 17.499-0.569 26.992-0.569 105.324 0 204.706 25.442 292.335 70.516l-3.594-1.68v179.627c-86.273-37.985-186.856-60.094-292.602-60.094-8.134 0-16.238 0.131-24.309 0.39l1.178-0.030c-6.918-0.231-15.050-0.363-23.212-0.363-105.719 0-206.274 22.11-297.292 61.959l4.771-1.862zM827.733 609.707v175.36c-84.035 43.394-183.417 68.836-288.742 68.836-9.493 0-18.937-0.207-28.329-0.616l1.338 0.046c-136.533 0-256-25.6-315.733-68.267v-179.627c84.035-43.394 183.417-68.836 288.742-68.836 9.493 0 18.937 0.207 28.329 0.616l-1.338-0.046c136.533 0 256 29.867 315.733 72.533zM512 456.534c-6.918-0.231-15.050-0.363-23.212-0.363-105.719 0-206.274 22.11-297.292 61.959l4.771-1.862v-179.2c84.035-43.394 183.417-68.836 288.742-68.836 9.493 0 18.937 0.207 28.329 0.616l-1.338-0.046c8.054-0.363 17.499-0.569 26.992-0.569 105.324 0 204.706 25.442 292.335 70.516l-3.594-1.68v179.2c-86.273-37.985-186.856-60.094-292.602-60.094-8.134 0-16.238 0.131-24.309 0.39l1.178-0.030z" />
<glyph unicode="&#xe60d;" glyph-name="delete" d="M618.667 853.334v-51.2c76.8-8.533 149.333-34.133 192-64v-98.133h-597.333v98.133c42.667 29.867 119.467 55.467 192 64v51.2h213.333zM256 597.334v-563.2c4.267-17.067 21.333-34.133 42.667-34.133h426.667c21.333 0 38.4 17.067 42.667 34.133v563.2h-512zM384 170.667h-42.667v298.667h42.667v-298.667zM533.333 170.667h-42.667v298.667h42.667v-298.667zM682.667 170.667h-42.667v298.667h42.667v-298.667z" />
<glyph unicode="&#xe60e;" glyph-name="document" d="M571.733 853.334h-358.4v-853.333h597.333v614.4l-238.933 238.933zM597.333 708.267l68.267-68.267h-68.267v68.267zM298.667 85.334v682.667h213.333v-213.333h213.333v-469.333h-426.667z" />
<glyph unicode="&#xe60f;" glyph-name="download" d="M256 85.334h512v-85.333h-512v85.333zM802.133 512h-162.133v341.333h-256v-341.333h-162.133c-17.067 0-29.867-21.333-17.067-38.4l307.2-302.933 302.933 302.933c17.067 17.067 4.267 38.4-12.8 38.4z" />
<glyph unicode="&#xe610;" glyph-name="edit" d="M93.867 34.134c-4.267-12.8 12.8-29.867 25.6-25.6l247.467 119.467-153.6 153.6-119.467-247.467zM925.867 716.8l-123.733 123.733c-8.533 8.533-21.333 8.533-29.867 0l-490.667-490.667 153.6-153.6 490.667 490.667c8.533 8.533 8.533 21.333 0 29.867z" />
<glyph unicode="&#xe611;" glyph-name="email" d="M524.8 362.667l405.333 294.4c4.267 4.267 8.533 8.533 8.533 17.067v8.533c0 46.933-38.4 85.333-85.333 85.333h-682.667c-46.933 0-85.333-38.4-85.333-85.333v-8.533c0-8.533 4.267-12.8 8.533-17.067l405.333-294.4c8.533-4.267 17.067-4.267 25.6 0zM537.6 264.534c-8.533-4.267-17.067-8.533-25.6-8.533s-17.067 4.267-25.6 8.533l-401.067 290.133v-384c0-46.933 38.4-85.333 85.333-85.333h682.667c46.933 0 85.333 38.4 85.333 85.333v384l-401.067-290.133z" />
<glyph unicode="&#xe612;" glyph-name="external-link" d="M810.667 128h-597.333v597.333h256v85.333h-341.333v-768h768v341.333h-85.333zM610.125 810.665c-17.067 0-29.867-21.333-17.067-38.4l72.533-72.533-221.865-221.865 119.466-119.466 221.865 221.865 72.533-72.533c12.8-12.8 38.4-4.267 38.4 17.067v285.865h-285.865z" />
<glyph unicode="&#xe613;" glyph-name="filter" d="M874.667 819.2l-277.333-435.2v-384l-170.667 128v256l-277.333 435.2c-8.533 17.067 0 34.133 17.067 34.133h691.2c17.067 0 25.6-17.067 17.067-34.133z" />
<glyph unicode="&#xe614;" glyph-name="pipeline" d="M981.333 426.667c0 128-64 230.4-149.333 256h-652.8c89.6-25.6 149.333-128 149.333-256s-64-230.4-149.333-256h652.8c85.333 25.6 149.333 128 149.333 256zM230.4 426.667c0-82.475-42.026-149.333-93.867-149.333s-93.867 66.859-93.867 149.333c0 82.475 42.026 149.333 93.867 149.333s93.867-66.859 93.867-149.333z" />
<glyph unicode="&#xe615;" glyph-name="folder" d="M896 85.334h-768c-21.333 0-42.667 21.333-42.667 42.667v597.333c0 21.333 21.333 42.667 42.667 42.667h277.333l85.333-85.333h405.333c21.333 0 42.667-21.333 42.667-42.667v-512c0-21.333-21.333-42.667-42.667-42.667z" />
<glyph unicode="&#xe616;" glyph-name="globe" d="M512 853.334c-234.667 0-426.667-192-426.667-426.667s192-426.667 426.667-426.667 426.667 192 426.667 426.667-192 426.667-426.667 426.667zM256 682.667c68.267 68.267 157.867 106.667 256 106.667s187.733-38.4 256-106.667h-187.733l-98.133-98.133c-21.333-21.333-42.667-29.867-68.267-29.867-17.067 0-34.133 4.267-51.2 17.067l-110.933-110.933c-21.333-21.333-51.2-34.133-76.8-34.133-8.533 0-12.8 0-21.333 4.267 0 89.6 34.133 179.2 102.4 251.733zM512 68.267c-98.133 0-187.733 38.4-256 106.667-21.333 21.333-38.4 46.933-55.467 72.533 4.267 8.533 12.8 17.067 21.333 25.6 29.867 29.867 68.267 42.667 106.667 42.667s76.8-12.8 106.667-42.667l187.733-187.733c-34.133-12.8-72.533-17.067-110.933-17.067zM836.267 268.8h-162.133c-42.667 0-81.067 34.133-81.067 81.067 0 42.667 34.133 81.067 81.067 81.067h25.6c8.533 38.4 38.4 64 76.8 64h89.6c12.8-76.8 4.267-153.6-29.867-226.133z" />
<glyph unicode="&#xe617;" glyph-name="help-circle" d="M512 853.334c-234.667 0-426.667-192-426.667-426.667s192-426.667 426.667-426.667 426.667 192 426.667 426.667-187.733 426.667-426.667 426.667zM512 128c-34.133 0-64 29.867-64 64s29.867 64 64 64 64-29.867 64-64c0-29.867-29.867-64-64-64zM644.267 460.8l-38.4-38.4c-29.867-29.867-51.2-55.467-51.2-119.467h-85.333v21.333c0 46.933 17.067 89.6 51.2 119.467l51.2 55.467c17.067 17.067 25.6 38.4 25.6 59.733 0 46.933-38.4 85.333-85.333 85.333s-85.333-38.4-85.333-85.333h-85.333c0 93.867 76.8 170.667 170.667 170.667s170.667-76.8 170.667-170.667c0-38.4-17.067-72.533-38.4-98.133z" />
<glyph unicode="&#xe618;" glyph-name="history" d="M465.067 665.6v-285.867l204.8-119.467 29.867 55.467-162.133 102.4v247.467zM290.133 512c17.067 0 29.867 21.333 17.067 38.4l-68.267 64c59.733 85.333 157.867 145.067 273.067 145.067 183.467 0 332.8-149.333 332.8-332.8s-149.333-332.8-332.8-332.8c-183.467 0-332.8 149.333-332.8 332.8h-93.867c0-234.667 192-426.667 426.667-426.667s426.667 192 426.667 426.667-192 426.667-426.667 426.667c-140.8 0-264.533-68.267-341.333-170.667l-46.933 46.933c-17.067 17.067-38.4 4.267-38.4-12.8v-204.8h204.8z" />
<glyph unicode="&#xe619;" glyph-name="info-circle" d="M512 853.334c-234.667 0-426.667-192-426.667-426.667s192-426.667 426.667-426.667 426.667 192 426.667 426.667-187.733 426.667-426.667 426.667zM554.667 512v-298.667h-85.333v298.667h85.333zM512 554.667c-34.133 0-64 29.867-64 64s29.867 64 64 64 64-29.867 64-64c0-34.133-29.867-64-64-64z" />
<glyph unicode="&#xe61a;" glyph-name="instance" d="M558.933 896h-490.667c-12.8 0-25.6-12.8-25.6-25.6v-802.133c0-12.8 12.8-25.6 25.6-25.6h315.733v358.4h-285.867v110.933h285.867v55.467h-285.867v110.933h328.533c38.4 29.867 93.867 46.933 162.133 59.733v132.267c0 12.8-12.8 25.6-29.867 25.6zM537.6 733.867h-439.467v110.933h439.467v-110.933zM721.067-42.666c-115.2 0-213.333 25.6-260.267 55.467v0 145.067c64-29.867 157.867-46.933 260.267-46.933s196.267 17.067 260.267 46.933v-145.067c-46.933-29.867-145.067-55.467-260.267-55.467zM981.333 486.4v0 0 0c-46.933-38.4-145.067-55.467-260.267-55.467s-213.333 25.6-260.267 55.467v0 140.8c46.933 38.4 145.067 55.467 260.267 55.467s213.333-25.6 260.267-55.467v0-140.8zM721.067 192c-115.2 0-213.333 25.6-260.267 55.467v0 145.067c64-29.867 157.867-46.933 260.267-46.933s196.267 17.067 260.267 46.933v-145.067c-46.933-29.867-145.067-55.467-260.267-55.467z" />
<glyph unicode="&#xe61b;" glyph-name="message-tick" d="M46.933 375.467l311.467-307.2c17.067-17.067 42.667-17.067 59.733 0l554.667 558.933-183.467 183.467-401.067-405.333-153.6 157.867-187.733-187.733z" />
<glyph unicode="&#xe61c;" glyph-name="minus" d="M128 512h768v-170.667h-768v170.667z" />
<glyph unicode="&#xe61d;" glyph-name="phone" d="M307.2 251.734c140.8-170.667 294.4-281.6 460.8-247.467l128 102.4c0 64-145.067 200.533-192 187.733l-81.067-64c-76.8 8.533-128 59.733-183.467 128-59.733 68.267-98.133 128-89.6 204.8l81.067 64c25.6 42.667-85.333 209.067-145.067 221.867l-128-102.4c-68.267-149.333 8.533-320 149.333-494.933z" />
<glyph unicode="&#xe61e;" glyph-name="play-circle" d="M512 853.334c-234.667 0-426.667-192-426.667-426.667s192-426.667 426.667-426.667 426.667 192 426.667 426.667-187.733 426.667-426.667 426.667zM384 230.4v392.533l341.333-196.267-341.333-196.267z" />
<glyph unicode="&#xe61f;" glyph-name="plus-circle" d="M512 853.334c234.667 0 426.667-192 426.667-426.667s-192-426.667-426.667-426.667-426.667 192-426.667 426.667 192 426.667 426.667 426.667v0zM256 384h213.333v-213.333h85.333v213.333h213.333v85.333h-213.333v213.333h-85.333v-213.333h-213.333v-85.333z" />
<glyph unicode="&#xe620;" glyph-name="plus" d="M597.333 42.667v298.667h298.667v170.667h-298.667v298.667h-170.667v-298.667h-298.667v-170.667h298.667v-298.667z" />
<glyph unicode="&#xe621;" glyph-name="refresh" d="M290.133 341.334c21.333 0 34.133-34.133 17.067-51.2l-59.733-59.733c59.733-81.067 153.6-132.267 264.533-132.267 183.467 0 332.8 149.333 332.8 332.8h93.867c0-234.667-192-426.667-426.667-426.667-132.267 0-251.733 59.733-328.533 157.867l-55.467-59.733c-17.067-17.067-42.667-8.533-42.667 17.067v221.867h204.8zM938.667 512v221.867c0 21.333-25.6 34.133-42.667 17.067l-51.2-55.467c-81.067 98.133-200.533 157.867-332.8 157.867-234.667 0-426.667-170.667-426.667-426.667h93.867c0 170.667 149.333 332.8 332.8 332.8 106.667 0 200.533-51.2 264.533-132.267l-59.733-64c-17.067-17.067-4.267-51.2 17.067-51.2h204.8z" />
<glyph unicode="&#xe622;" glyph-name="save" d="M469.333 682.667h128v-170.667h-128v170.667zM704 810.667h-512c-34.133 0-64-29.867-64-64v-640c0-34.133 29.867-64 64-64h640c34.133 0 64 29.867 64 64v512l-192 192zM682.667 469.334h-426.667v256h426.667v-256z" />
<glyph unicode="&#xe623;" glyph-name="search" d="M921.6 128l-256 256c72.533 119.467 55.467 277.333-46.933 379.733-64 59.733-140.8 89.6-221.867 89.6-98.133 0-196.267-42.667-260.267-136.533-72.533-102.4-72.533-243.2 0-349.867 64-93.867 162.133-140.8 260.267-140.8 51.2 0 102.4 12.8 149.333 38.4l260.267-260.267c8.533-8.533 21.333-8.533 29.867 0l89.6 89.6c4.267 12.8 4.267 25.6-4.267 34.133zM234.667 379.734c-89.6 89.6-89.6 234.667 0 320 42.667 42.667 98.133 68.267 162.133 68.267s119.467-25.6 162.133-68.267c89.6-89.6 89.6-234.667 0-320-42.667-42.667-98.133-68.267-162.133-68.267s-119.467 25.6-162.133 68.267z" />
<glyph unicode="&#xe624;" glyph-name="settings" d="M832 426.667c0 12.8 0 29.867-4.267 42.667l85.333 93.867c-17.067 55.467-46.933 102.4-85.333 145.067l-123.733-29.867c-21.333 17.067-46.933 34.133-76.8 42.667l-29.867 123.733c-29.867 4.267-55.467 8.533-85.333 8.533s-55.467-4.267-85.333-8.533l-34.133-123.733c-25.6-12.8-51.2-25.6-76.8-42.667l-123.733 29.867c-38.4-42.667-64-89.6-85.333-145.067l85.333-93.867c0-12.8-4.267-29.867-4.267-42.667s0-29.867 4.267-42.667l-85.333-93.867c17.067-55.467 46.933-102.4 85.333-145.067l123.733 29.867c21.333-17.067 46.933-34.133 76.8-42.667l38.4-123.733c25.6-4.267 55.467-8.533 85.333-8.533s55.467 4.267 85.333 8.533l38.4 123.733c25.6 12.8 51.2 25.6 76.8 42.667l123.733-29.867c38.4 42.667 64 89.6 85.333 145.067l-85.333 93.867c-8.533 12.8-8.533 29.867-8.533 42.667zM512 298.667c-72.533 0-128 55.467-128 128s55.467 128 128 128 128-55.467 128-128-55.467-128-128-128z" />
<glyph unicode="&#xe625;" glyph-name="tick" d="M140.8 375.467l226.133-221.867c17.067-17.067 42.667-17.067 59.733 0l452.267 452.267-115.2 119.467-362.667-362.667-132.267 136.533-128-123.733z" />
<glyph unicode="&#xe626;" glyph-name="user" d="M725.333 640c0-117.821-95.513-213.333-213.333-213.333s-213.333 95.513-213.333 213.333c0 117.821 95.513 213.333 213.333 213.333s213.333-95.513 213.333-213.333zM896 42.667v166.4c-93.867 81.067-230.4 132.267-388.267 132.267-153.6 0-285.867-51.2-379.733-128v-170.667h768z" />
<glyph unicode="&#xe627;" glyph-name="users" d="M938.667 42.667v110.933c-72.533 64-179.2 102.4-298.667 102.4s-221.867-38.4-298.667-98.133v-115.2h597.333zM810.667 469.334c0-94.257-76.41-170.667-170.667-170.667s-170.667 76.41-170.667 170.667c0 94.257 76.41 170.667 170.667 170.667s170.667-76.41 170.667-170.667zM311.467 192c64 46.933 136.533 81.067 213.333 98.133-34.133 21.333-64 55.467-81.067 93.867-21.333 4.267-38.4 4.267-59.733 4.267-119.467 0-221.867-38.4-298.667-98.133v-115.2h200.533l25.6 17.067zM426.667 469.334c0 81.067 46.933 153.6 115.2 187.733-25.6 64-85.333 110.933-157.867 110.933-93.867 0-170.667-76.8-170.667-170.667s76.8-170.667 170.667-170.667c17.067 0 29.867 4.267 46.933 8.533-4.267 8.533-4.267 21.333-4.267 34.133z" />
<glyph unicode="&#xe628;" glyph-name="video" d="M85.333 640v-426.667c0-46.933 38.4-85.333 85.333-85.333h682.667c46.933 0 85.333 38.4 85.333 85.333v426.667c0 46.933-38.4 85.333-85.333 85.333h-682.667c-46.933 0-85.333-38.4-85.333-85.333zM384 230.4v392.533l341.333-196.267-341.333-196.267z" />
<glyph unicode="&#xe629;" glyph-name="warning-triangle" d="M972.8 140.8l-405.333 699.733c-25.6 42.667-85.333 42.667-110.933 0l-405.333-699.733c-25.6-42.667 4.267-98.133 55.467-98.133h810.667c46.933 0 81.067 55.467 55.467 98.133zM469.333 640h85.333v-298.667h-85.333v298.667zM512 187.734c-34.133 0-64 29.867-64 64s29.867 64 64 64 64-29.867 64-64-29.867-64-64-64z" />
<glyph unicode="&#xe62a;" glyph-name="shopping-cart" d="M750.933 221.867c-55.467 0-98.133-42.667-98.133-98.133s42.667-98.133 98.133-98.133c55.467 0 98.133 42.667 98.133 98.133 0 51.2-46.933 98.133-98.133 98.133zM294.4 221.867c-55.467 0-98.133-42.667-98.133-98.133s42.667-98.133 98.133-98.133 98.133 42.667 98.133 98.133c4.267 51.2-42.667 98.133-98.133 98.133zM106.667 853.334h106.667c46.933 0 85.333-38.4 85.333-85.333v0h640l-149.333-413.867c-12.8-34.133-42.667-55.467-81.067-55.467h-379.733c-42.667 0-76.8 29.867-85.333 68.267l-72.533 401.067h-85.333v64c0 12.8 8.533 21.333 21.333 21.333z" />
<glyph unicode="&#xe62b;" glyph-name="message-cross" d="M691.2 426.667l213.333 209.067-183.467 183.467-209.067-213.333-209.067 213.333-183.467-183.467 213.333-209.067-213.333-209.067 183.467-183.467 209.067 213.333 209.067-213.333 183.467 183.467z" />
<glyph unicode="&#xe62c;" glyph-name="folder-open" d="M938.667 682.667h-405.333l-85.333 85.333h-277.333c-21.333 0-42.667-21.333-42.667-42.667v-302.933h-51.2c-21.333 0-34.133-25.6-29.867-46.933l72.533-243.2c4.267-12.8 12.8-25.6 21.333-34.133s17.067-12.8 29.867-12.8h768c21.333 0 42.667 21.333 42.667 42.667v512c0 21.333-21.333 42.667-42.667 42.667zM213.333 554.667c0 21.333 17.067 42.667 42.667 42.667h597.333c25.6 0 42.667-21.333 42.667-42.667v-354.133l-46.933 174.933c-8.533 25.6-42.667 46.933-64 46.933h-571.733v132.267z" />
<glyph unicode="&#xe800;" glyph-name="add-ons" d="M810.667 522.667c-6.4 0-34.987 0-42.667 0v117.333c0 23.564-19.103 42.667-42.667 42.667v0h-116.053c0 6.827 2.56 32.427 2.56 39.68 0 94.257-76.41 170.667-170.667 170.667s-170.667-76.41-170.667-170.667v0c0-7.253 0-32.853 0-39.68h-142.507c-23.564 0-42.667-19.103-42.667-42.667v0-123.733c11.395 2.712 24.477 4.267 37.923 4.267 94.257 0 170.667-76.41 170.667-170.667s-76.41-170.667-170.667-170.667c-13.446 0-26.528 1.555-39.078 4.495l1.155-0.228v-140.8c0-23.564 19.103-42.667 42.667-42.667v0h597.333c23.564 0 42.667 19.103 42.667 42.667v0 138.667c5.973 0 34.987 0 42.667 0 94.257 0 170.667 76.41 170.667 170.667s-76.41 170.667-170.667 170.667v0z" />
<glyph unicode="&#xe900;" glyph-name="server" d="M768 853.334h-512c-25.6 0-42.667-17.067-42.667-42.667v-768c0-25.6 17.067-42.667 42.667-42.667h512c25.6 0 42.667 17.067 42.667 42.667v768c0 25.6-17.067 42.667-42.667 42.667zM682.667 170.667c-25.6 0-42.667 17.067-42.667 42.667s17.067 42.667 42.667 42.667 42.667-17.067 42.667-42.667c0-25.6-17.067-42.667-42.667-42.667zM725.333 341.334h-426.667v85.333h426.667v-85.333zM725.333 512h-426.667v85.333h426.667v-85.333zM725.333 682.667h-426.667v85.333h426.667v-85.333z" />
<glyph unicode="&#xe901;" glyph-name="flag" d="M682.667 554.667l213.333 213.333h-622.933c4.267 8.533 4.267 12.8 4.267 21.333 0 34.133-29.867 64-64 64s-64-29.867-64-64c0-17.067 8.533-34.133 21.333-46.933 0-132.267 0-742.4 0-742.4h85.333v341.333h640l-213.333 213.333z" />
<glyph unicode="&#xe902;" glyph-name="show" d="M512 691.2c-196.267 0-358.4-106.667-426.667-264.533 68.267-157.867 230.4-264.533 426.667-264.533s358.4 110.933 426.667 264.533c-68.267 157.867-230.4 264.533-426.667 264.533zM512 238.934c-102.4 0-187.733 85.333-187.733 187.733s85.333 187.733 187.733 187.733 187.733-85.333 187.733-187.733-85.333-187.733-187.733-187.733zM618.667 426.667c0-58.91-47.756-106.667-106.667-106.667s-106.667 47.756-106.667 106.667c0 58.91 47.756 106.667 106.667 106.667s106.667-47.756 106.667-106.667z" />
<glyph unicode="&#xe903;" glyph-name="play" d="M213.333 115.2v622.933c0 29.867 34.133 51.2 64 34.133l537.6-311.467c29.867-17.067 29.867-55.467 0-72.533l-537.6-307.2c-29.867-17.067-64 4.267-64 34.133z" />
<glyph unicode="&#xe904;" glyph-name="copydoc" d="M170.667 768h85.333v-682.667h-85.333v682.667zM768 85.334v-85.333h-597.333v85.333h597.333zM614.4 853.334h-315.733v-725.333h554.667v486.4l-238.933 238.933zM640 708.267l68.267-68.267h-68.267v68.267zM384 213.334v554.667h170.667v-213.333h213.333v-341.333h-384z" />
<glyph unicode="&#xe905;" glyph-name="dock" d="M810.667 384v-256h-597.333v597.333h256v85.333h-341.333v-768h768v341.333zM465.067 644.267c-17.067 17.067-38.4 4.267-38.4-12.8v-290.133h290.133c17.067 0 29.867 21.333 17.067 38.4l-72.533 72.533 221.867 221.867-119.467 119.467-221.867-221.867-76.8 72.533z" />
<glyph unicode="&#xe906;" glyph-name="more-actions-horizontal" d="M256 512c-46.933 0-85.333-38.4-85.333-85.333s38.4-85.333 85.333-85.333 85.333 38.4 85.333 85.333-38.4 85.333-85.333 85.333zM768 512c-46.933 0-85.333-38.4-85.333-85.333s38.4-85.333 85.333-85.333 85.333 38.4 85.333 85.333-38.4 85.333-85.333 85.333zM512 512c-46.933 0-85.333-38.4-85.333-85.333s38.4-85.333 85.333-85.333 85.333 38.4 85.333 85.333-38.4 85.333-85.333 85.333z" />
<glyph unicode="&#xe907;" glyph-name="more-actions-vertical" d="M512 597.334c46.933 0 85.333 38.4 85.333 85.333s-38.4 85.333-85.333 85.333-85.333-38.4-85.333-85.333 38.4-85.333 85.333-85.333zM512 512c-46.933 0-85.333-38.4-85.333-85.333s38.4-85.333 85.333-85.333 85.333 38.4 85.333 85.333-38.4 85.333-85.333 85.333zM512 256c-46.933 0-85.333-38.4-85.333-85.333s38.4-85.333 85.333-85.333 85.333 38.4 85.333 85.333-38.4 85.333-85.333 85.333z" />
<glyph unicode="&#xe908;" glyph-name="alert-silence" d="M512-0c72.533 0 128 55.467 128 128h-256c0-72.533 55.467-128 128-128zM277.333 661.334v0l-68.267 68.267-42.667-42.667 93.867-93.867c-4.267-12.8-4.267-25.6-4.267-38.4v-183.467l-115.2-110.933c-8.533-8.533-12.8-17.067-12.8-29.867v-59.733h554.667l89.6-89.6 42.667 42.667-537.6 537.6zM883.2 260.267l-115.2 110.933v183.467c0 115.2-72.533 209.067-179.2 243.2-8.533 34.133-42.667 55.467-76.8 55.467s-68.267-21.333-76.8-51.2c-51.2-17.067-93.867-46.933-123.733-89.6l541.867-541.867h42.667v59.733c0 12.8-4.267 21.333-12.8 29.867z" />
<glyph unicode="&#xe909;" glyph-name="maintenance" d="M934.4 652.8l-145.067-145.067-153.6 42.667-42.667 153.6 145.067 145.067c-93.867 25.6-196.267 0-268.8-72.533-76.8-76.8-98.133-183.467-68.267-277.333l-324.267-324.267c-8.533-8.533-8.533-21.333 0-29.867l149.333-149.333c8.533-8.533 21.333-8.533 29.867 0l324.267 324.267c93.867-29.867 204.8-8.533 281.6 68.267 72.533 68.267 98.133 170.667 72.533 264.533z" />
<glyph unicode="&#xe90a;" glyph-name="print" d="M853.333 597.334h-85.333v170.667h-512v-170.667h-85.333c-46.933 0-85.333-38.4-85.333-85.333v-298.667h170.667v-170.667h512v170.667h170.667v298.667c0 46.933-38.4 85.333-85.333 85.333zM682.667 128h-341.333v213.333h341.333v-213.333zM682.667 597.334h-341.333v85.333h341.333v-85.333zM810.667 426.667c-25.6 0-42.667 17.067-42.667 42.667s17.067 42.667 42.667 42.667 42.667-17.067 42.667-42.667c0-25.6-17.067-42.667-42.667-42.667z" />
<glyph unicode="&#xe90b;" glyph-name="hide" d="M512 695.467c-59.733 0-110.933-8.533-162.133-25.6l76.8-76.8c25.6 12.8 55.467 21.333 89.6 21.333 102.4 0 187.733-85.333 187.733-187.733 0-34.133-8.533-59.733-21.333-89.6l102.4-102.4c72.533 46.933 128 110.933 162.133 187.733-76.8 162.133-238.933 273.067-435.2 273.067zM512 533.334c-8.533 0-17.067 0-25.6-4.267l128-128c4.267 8.533 4.267 17.067 4.267 25.6 0 59.733-46.933 106.667-106.667 106.667zM430.933 494.934v0l-55.467 59.733-85.333 85.333-81.067 76.8-42.667-42.667 68.267-68.267c-68.267-42.667-119.467-106.667-149.333-179.2 68.267-157.867 230.4-268.8 426.667-268.8 51.2 0 102.4 8.533 145.067 21.333l110.933-110.933 42.667 42.667-307.2 307.2-72.533 76.8zM512 238.934c-102.4 0-187.733 85.333-187.733 187.733 0 25.6 4.267 51.2 17.067 72.533l64-64c0-4.267 0-4.267 0-8.533 0-59.733 46.933-106.667 106.667-106.667 4.267 0 4.267 0 8.533 0l64-64c-21.333-8.533-46.933-17.067-72.533-17.067z" />
<glyph unicode="&#xe90c;" glyph-name="warning-octagon" d="M686.933 853.334h-349.867l-251.733-234.667v-354.133l251.733-264.533h354.133l251.733 264.533v354.133l-256 234.667zM554.667 640v-298.667h-85.333v298.667h85.333zM512 187.734c-34.133 0-64 29.867-64 64s29.867 64 64 64 64-29.867 64-64-29.867-64-64-64z" />
<glyph unicode="&#xe90d;" glyph-name="tag" d="M435.2 853.334h-349.867v-349.867c0-12.8 4.267-21.333 12.8-29.867l448-443.733c17.067-17.067 42.667-17.067 59.733 0l302.933 307.2c17.067 17.067 17.067 42.667 0 59.733l-439.467 443.733c-8.533 8.533-21.333 12.8-34.133 12.8zM238.933 635.734c-34.133 0-64 29.867-64 64s29.867 64 64 64 64-29.867 64-64c0-34.133-29.867-64-64-64z" />
<glyph unicode="&#xe90e;" glyph-name="minimize" d="M810.667 810.667h-597.333c-46.933 0-85.333-38.4-85.333-85.333v-597.333c0-46.933 38.4-85.333 85.333-85.333h597.333c46.933 0 85.333 38.4 85.333 85.333v597.333c0 46.933-38.4 85.333-85.333 85.333zM768 384h-512v85.333h512v-85.333z" />
<glyph unicode="&#xe90f;" glyph-name="expand" d="M810.667 810.667h-597.333c-46.933 0-85.333-38.4-85.333-85.333v-597.333c0-46.933 38.4-85.333 85.333-85.333h597.333c46.933 0 85.333 38.4 85.333 85.333v597.333c0 46.933-38.4 85.333-85.333 85.333zM768 384h-213.333v-213.333h-85.333v213.333h-213.333v85.333h213.333v213.333h85.333v-213.333h213.333v-85.333z" />
<glyph unicode="&#xe910;" glyph-name="import" d="M810.667-0v256h-85.333v-170.667h-426.667v682.667h426.667v-170.667h85.333v256h-597.333v-853.333h597.333zM640 614.4c0 17.067-21.333 29.867-38.4 17.067l-204.8-204.8 204.8-204.8c17.067-12.8 38.4-4.267 38.4 17.067v102.4h298.667v170.667h-298.667v102.4z" />
<glyph unicode="&#xe911;" glyph-name="export" d="M682.667-0v256h-85.333v-170.667h-426.667v682.667h426.667v-170.667h85.333v256h-597.333v-853.333h597.333zM768 614.4v-102.4h-298.667v-170.667h298.667v-102.4c0-17.067 21.333-29.867 38.4-17.067l204.8 204.8-204.8 204.8c-17.067 12.8-38.4 4.267-38.4-17.067z" />
<glyph unicode="&#xe912;" glyph-name="zoom-in" d="M426.667 853.334c-85.333 0-170.667-29.867-234.667-93.867-140.8-132.267-140.8-354.133-8.533-490.667 68.267-64 153.6-98.133 243.2-98.133 59.733 0 119.467 17.067 170.667 46.933l209.067-209.067c4.267-4.267 8.533-4.267 17.067-4.267s12.8 0 17.067 4.267l89.6 89.6c8.533 8.533 8.533 21.333 0 29.867l-204.8 204.8c85.333 140.8 59.733 324.267-72.533 435.2-68.267 59.733-149.333 85.333-226.133 85.333v0 0zM213.333 469.334v85.333h170.667v170.667h85.333v-170.667h170.667v-85.333h-170.667v-170.667h-85.333v170.667h-170.667z" />
<glyph unicode="&#xe913;" glyph-name="zoom-out" d="M426.667 853.334c-85.333 0-170.667-29.867-234.667-93.867-140.8-132.267-140.8-354.133-8.533-490.667 68.267-64 153.6-98.133 243.2-98.133 59.733 0 119.467 17.067 170.667 46.933l209.067-209.067c4.267-4.267 8.533-4.267 17.067-4.267 4.267 0 12.8 0 17.067 4.267l89.6 89.6c8.533 8.533 8.533 21.333 0 29.867l-204.8 204.8c85.333 140.8 59.733 324.267-72.533 435.2-68.267 59.733-149.333 85.333-226.133 85.333v0 0zM213.333 469.334v85.333h426.667v-85.333h-426.667z" />
<glyph unicode="&#xe914;" glyph-name="test-data" d="M170.667 896v-938.667h682.667v938.667zM768 42.667h-512v768h512zM341.333 725.334h341.333v-85.333h-341.333v85.333zM341.333 597.334h298.667v-85.333h-298.667v85.333zM341.333 469.334h341.333v-85.333h-341.333v85.333zM341.333 341.334h298.667v-85.333h-298.667v85.333zM341.333 213.334h85.333v-85.333h-85.333v85.333z" />
<glyph unicode="&#xe915;" glyph-name="map-pin" d="M753.067 170.667c87.481 70.965 142.933 178.458 142.933 298.903 0 212.077-171.923 384-384 384s-384-171.923-384-384c0-120.445 55.453-227.938 142.221-298.343l0.713-0.56 241.067-213.333zM512 320c-82.475 0-149.333 66.859-149.333 149.333s66.859 149.333 149.333 149.333c82.475 0 149.333-66.859 149.333-149.333v0c0-82.475-66.859-149.333-149.333-149.333v0z" />
<glyph unicode="&#xe916;" glyph-name="clock" d="M512 853.334c-235.641 0-426.667-191.025-426.667-426.667s191.025-426.667 426.667-426.667c235.641 0 426.667 191.025 426.667 426.667v0c0 235.641-191.025 426.667-426.667 426.667v0zM692.48 199.68l-223.147 184.32v384h85.333v-343.893l192-158.72z" />
<glyph unicode="&#xe917;" glyph-name="rss" d="M105.813 853.334h-20.48v-162.56h20.48c369.997-0.485 669.808-300.296 670.293-670.247v-20.527h162.56v20.48c-0.728 459.68-373.175 832.126-832.784 832.853h-0.069zM298.667 106.667c0-58.91-47.756-106.667-106.667-106.667s-106.667 47.756-106.667 106.667c0 58.91 47.756 106.667 106.667 106.667s106.667-47.756 106.667-106.667zM85.333 853.334v-170.667c377.026 0 682.667-305.64 682.667-682.667v0h170.667c0 471.283-382.050 853.333-853.333 853.333v0zM85.333 554.667v-170.667c212.077 0 384-171.923 384-384v0h170.667c0 306.334-248.333 554.667-554.667 554.667v0z" />
<glyph unicode="&#xe918;" glyph-name="award" d="M814.933 593.067c0 166.4-132.267 302.933-302.933 302.933-166.4 0-302.933-136.533-302.933-302.933 0-115.2 64-217.6 162.133-268.8l-29.867-366.933 170.667 128 170.667-128-29.867 366.933c98.133 51.2 162.133 153.6 162.133 268.8zM644.267 418.134c-93.867-72.533-234.667-55.467-307.2 38.4-29.867 38.4-46.933 85.333-46.933 132.267 4.267 123.733 98.133 221.867 221.867 221.867 119.467 0 217.6-98.133 221.867-217.6-4.267-68.267-34.133-132.267-89.6-174.933v0zM661.333 597.334c0-82.475-66.859-149.333-149.333-149.333s-149.333 66.859-149.333 149.333c0 82.475 66.859 149.333 149.333 149.333s149.333-66.859 149.333-149.333z" />
<glyph unicode="&#xe919;" glyph-name="approved" d="M981.333 494.934l-140.8 106.667-25.6 174.933-174.933-8.533-128 123.733-132.267-119.467-174.933 4.267-21.333-170.667-140.8-110.933 93.867-149.333-38.4-170.667 166.4-55.467 81.067-153.6 162.133 64 162.133-68.267 81.067 153.6 166.4 55.467-38.4 170.667 102.4 153.6zM435.2 221.867l-170.667 166.4 81.067 81.067 89.6-89.6 243.2 243.2 81.067-81.067-324.267-320z" />
<glyph unicode="&#xe91a;" glyph-name="sql-monitor2" horiz-adv-x="768" d="M137.6 474.667l116.6 247.6c8.4 17.8 27 28.8 46.6 27.4 19.8-1.4 36.6-14.6 42.6-33.6l136-433.2 77.2 164c8 16.8 24.8 27.6 43.4 27.6h168v380.6c-69 49.4-214.8 83.6-384 83.6s-315-34.2-384-83.6v-380.4h137.6zM630.4 378.667l-116.6-247.6c-8-16.8-25-27.6-43.4-27.6-1 0-2.2 0-3.2 0.2-19.8 1.4-36.6 14.6-42.6 33.6l-136 433.2-77.2-164c-8-16.8-24.8-27.6-43.4-27.6h-168v-380.4c69-49.6 214.8-83.8 384-83.8s315 34.2 384 83.6v380.4h-137.6z" />
<glyph unicode="&#xe91b;" glyph-name="sql-compare" horiz-adv-x="768" d="M682 896.467l-237-237 221.4-221.4c18.8-18.8 18.8-49.2 0-68-9.4-9.4-21.6-14-34-14-12.2 0-24.6 4.6-34 14l-255.2 255.4c-9 9-14 21.2-14 34s5 25 14 34l229.8 229.8c-57 9.8-121 15.4-189 15.4-169.2 0-315-34.2-384-83.6v-856.8c21.6-15.6 50.8-29.6 86-41.4l237 237-221.4 221.4c-18.8 18.8-18.8 49.2 0 68s49.2 18.8 68 0l255.4-255.4c9-9 14-21.2 14-34s-5-25-14-34l-230-229.8c57-9.8 121-15.4 189-15.4 169.2 0 315 34.2 384 83.6v856.8c-21.6 15.4-50.8 29.6-86 41.4z" />
<glyph unicode="&#xe91c;" glyph-name="lightbulb" d="M341.333 260.267v-89.6h341.333v85.333c102.747 60.116 170.667 169.928 170.667 295.603 0 188.513-152.82 341.333-341.333 341.333s-341.333-152.82-341.333-341.333c0-125.675 67.92-235.487 169.056-294.731l1.611-0.872zM341.333 128v-85.333c25.743-15.417 56.102-26.027 88.553-29.768l1.047-0.098c13.109-31.312 43.499-52.909 78.933-52.909s65.824 21.598 78.724 52.347l0.209 0.562c34.983 3.185 66.893 13.876 94.918 30.442l-1.052-0.575v85.333z" />
<glyph unicode="&#xe91d;" glyph-name="tick-circle" d="M512 853.334c-234.667 0-426.667-192-426.667-426.667s192-426.667 426.667-426.667 426.667 192 426.667 426.667-192 426.667-426.667 426.667zM435.2 221.867l-170.667 166.4 81.067 81.067 89.6-89.6 243.2 243.2 81.067-81.067-324.267-320z" />
<glyph unicode="&#xe91e;" glyph-name="dlm-dashboard" horiz-adv-x="768" d="M629.6 546.667c-71.4 46-156.4 70.2-245.6 70.2s-174.2-24.2-245.6-70.2c-62.6-40.2-110-93.8-138.4-155.8v-392.8c69-49.2 214.8-83.4 384-83.4s315 34.2 384 83.6v392.8c-28.4 62-75.8 115.4-138.4 155.6zM573.2 394.267l-114.8-213.6c4-9.2 6.2-19.4 6.2-30 0-41.6-33.6-75.4-75.2-75.4-41.4 0-75.2 33.8-75.2 75.4 0 36 25 66 58.6 73.6l115.8 215.4c12.6 23.4 41.6 32.2 65 19.6s32.2-41.6 19.6-65zM384 712.867c150.4 0 289.4-58.8 384-155.6v297.8c-69 49.4-214.8 83.6-384 83.6s-315-34.2-384-83.6v-297.8c94.6 96.8 233.6 155.6 384 155.6z" />
<glyph unicode="&#xe91f;" glyph-name="sql-data-compare" horiz-adv-x="768" d="M678 165.267c-144.4 0-261.8 117.4-261.8 261.8 0 65.2 24.2 127.8 68 176.2 43.6 48 103 78 167.2 84.4 26.4 2.6 50-16.6 52.6-43s-16.6-50-43-52.6c-40.6-4.2-78.2-23.2-105.8-53.6-27.8-30.6-43-70.2-43-111.6 0-91.4 74.4-165.8 165.8-165.8h90v594c-69 49.4-214.8 83.6-384 83.6s-315-34.2-384-83.6v-167h90c144.4 0 261.8-117.4 261.8-261.8 0-65.2-24.2-127.8-68-176.2-43.6-48-103-78-167.2-84.4-1.6-0.2-3.2-0.2-5-0.2-24.4 0-45.2 18.4-47.6 43.2-2.6 26.4 16.6 50 43 52.6 40.6 4.2 78.2 23.2 105.8 53.6 27.8 30.6 43 70.2 43 111.6 0 91.4-74.4 165.8-165.8 165.8h-90v-593.8c69-49.6 214.8-83.8 384-83.8s315 34.2 384 83.6v167h-90z" />
<glyph unicode="&#xe920;" glyph-name="sql-doc" horiz-adv-x="768" d="M303.4 429.667h170.2l-170.2 170.2zM521.4 333.667h-266c-26.6 0-48 21.4-48 48v286h-207.4v-669.4c69-49.4 214.8-83.6 384-83.6 48.2 0 94.4 2.8 137.4 7.8v411.2zM384 938.667c-169.2 0-315-34.2-384-83.6v-91.4h255.4c12.8 0 25-5 34-14l314-314c9-9 14-21.2 14-34v-462.8c64.4 14.6 116.8 35.2 150.6 59.4v856.8c-69 49.4-214.8 83.6-384 83.6z" />
<glyph unicode="&#xe921;" glyph-name="sql-monitor" horiz-adv-x="768" d="M137.6 474.667l116.6 247.6c8.4 17.8 27 28.8 46.6 27.4 19.8-1.4 36.6-14.6 42.6-33.6l136-433.2 77.2 164c8 16.8 24.8 27.6 43.4 27.6h168v380.6c-69 49.4-214.8 83.6-384 83.6s-315-34.2-384-83.6v-380.4h137.6zM630.4 378.667l-116.6-247.6c-8-16.8-25-27.6-43.4-27.6-1 0-2.2 0-3.2 0.2-19.8 1.4-36.6 14.6-42.6 33.6l-136 433.2-77.2-164c-8-16.8-24.8-27.6-43.4-27.6h-168v-380.4c69-49.6 214.8-83.8 384-83.8s315 34.2 384 83.6v380.4h-137.6z" />
<glyph unicode="&#xe922;" glyph-name="sql-search" horiz-adv-x="768" d="M472.8 264.867c-28.6-10.4-58.2-15.4-87.6-15.4-88.8 0-175.2 45.6-223.4 127.2-72.6 123-31.6 282 91.4 354.6s282 31.6 354.6-91.4c41.2-69.8 47.4-153 17.2-228.2-9.8-24.6-37.8-36.6-62.4-26.6-24.6 9.8-36.6 37.8-26.6 62.4 19 47.4 15.2 99.8-10.8 143.6-45.6 77.4-145.8 103.2-223.2 57.6s-103.2-145.8-57.6-223.2c45.6-77.4 145.8-103.2 223.2-57.6 22.8 13.4 52.2 6 65.6-16.8l216.6-364.4c6.6 3.8 12.6 7.6 18.2 11.6v856.8c-69 49.4-214.8 83.6-384 83.6s-315-34.2-384-83.6v-856.8c69-49.4 214.8-83.6 384-83.6 105.4 0 201.6 13.2 276 35.2l-187.2 315z" />
<glyph unicode="&#xe923;" glyph-name="sql-data-masker" horiz-adv-x="768" d="M595.4 72.667c-26.363 0.193-47.659 21.609-47.659 47.999 0 23.061 16.262 42.323 37.945 46.945l0.314 0.056c67.6 13.4 122.2 33.4 154 56l2.8 1.8c0.2 0 14.8 9.2 25.2 16v148c-83.8-50.8-232.4-82-395.8-82h-9c-26.424 0.114-47.8 21.56-47.8 48 0 26.51 21.491 48 48 48 0.070 0 0.141 0 0.211 0h8.589c78.2 0 154 7.6 219.2 22.2 59.4 13.2 108 31.8 136.8 52.6l2.4 1.6c9.875 6.154 18.433 12.549 26.414 19.585l-0.214-0.185c3.040 4.923 6.764 9.093 11.1 12.524l0.1 0.076v125.6c-38.2-21-88.4-38.6-147-51.4l-16.2-3.4c-2.796-0.578-6.009-0.909-9.3-0.909-26.515 0-48.009 21.495-48.009 48.009 0 23.224 16.49 42.597 38.401 47.048l0.308 0.052 14.4 3c60.8 13.2 110.4 32.2 139.6 53.2l2.8 1.8c0.2 0 14.8 9.2 25.2 16v104.2c-69.2 49.4-215 83.6-384.2 83.6s-315-34.2-384-83.6v-101.6c7.593-6.644 15.952-12.903 24.769-18.506l0.831-0.494 2.4-1.6c28.8-20.6 77.4-39.2 136.8-52.6 65.2-14.4 140.8-22.2 219.2-22.2h8.6c0.059 0 0.13 0 0.2 0 26.51 0 48-21.491 48-48 0-26.44-21.377-47.886-47.79-48h-9.011c-156 0-298.6 28.4-384 75.2v-148.6l13.4-8.4 2.8-1.8c31.8-22.8 86.4-42.6 154-56 22.181-4.543 38.629-23.901 38.629-47.1 0-26.526-21.503-48.029-48.029-48.029-3.326 0-6.574 0.338-9.71 0.982l0.31-0.053c-59.8 11.8-111.2 28.2-151.4 48.4v-132.2c7.593-6.628 15.951-12.887 24.76-18.5l0.84-0.5 2.4-1.6c28.8-20.6 77.4-39.2 136.8-52.6 65.2-14.4 140.8-22.2 219.2-22.2h8.2c0.089 0.001 0.195 0.001 0.3 0.001 26.51 0 48.001-21.491 48.001-48.001 0-26.405-21.32-47.83-47.685-48h-8.816c-156 0-298.6 28.4-384 75.2v-130.2c69-49.2 214.8-83.4 384-83.4s315 34.2 384 83.6v130c-41.8-23-97.4-41.6-163.2-54.8-2.636-0.512-5.668-0.804-8.768-0.804-0.222 0-0.444 0.002-0.666 0.005h0.034z" />
<glyph unicode="&#xe924;" glyph-name="sql-test" horiz-adv-x="768" d="M444.6 44.267c-8-10-19.6-16.6-32.4-18-1.8-0.2-3.4-0.2-5.2-0.2-11 0-21.8 3.8-30.4 10.8l-274.4 223.8c-20.6 16.8-23.6 47-6.8 67.6s47 23.6 67.6 6.8l236.6-193 368.4 465.8v222.6l-362.4-457.2c-8-10.2-19.8-16.6-32.6-18-1.6-0.2-3.4-0.2-5-0.2-11.2 0-22 3.8-30.6 11l-180.6 149.4c-20.4 17-23.2 47.2-6.4 67.6 17 20.4 47.2 23.2 67.6 6.4l142.8-118.2 333.6 420.8c-77.8 28.6-188 46.6-310.4 46.6-169.2 0-315-34.2-384-83.6v-856.8c69-49.4 214.8-83.6 384-83.6s315 34.2 384 83.6v454.8l-323.4-408.8z" />
<glyph unicode="&#xe925;" glyph-name="sql-toolbelt" horiz-adv-x="768" d="M584 473.667l-287.4 7 100.2-105.6 187.2 4.6zM540.4 223.267l43.6 4.6v89.8l-126.2-7.2zM0 166.467l465.4 48.8-89.2 90.6-376.2-21.6zM201.2 483.067l-201.2 5v-122.8l310 7.6zM225.2 556.267l358.8-20.6v89.8l-471.2 49.6zM0 686.867v-117.8l123.2-7-123.2 124.8zM609.2 161.467c11 1.6 24.6 15.4 24.6 37.6v455.4c0 21.4-12.8 35.8-24.6 37.6l-609.2 86.4v76.6c69 49.4 214.8 83.6 384 83.6s315-34.2 384-83.6v-856.8c-69-49.4-214.8-83.6-384-83.6s-315 34.2-384 83.6v76.6l609.2 86.6z" />
<glyph unicode="&#xe926;" glyph-name="sql-dependency-tracker" horiz-adv-x="768" d="M244 590.067c-45.8 0-83-37.2-83-83s37.2-83 83-83c45.8 0 83 37.2 83 83s-37.2 83-83 83zM71.4 555.067c21 75.6 90.4 131 172.6 131 28.8 0 56-6.8 80.2-19l234 258.6c-53.2 8.4-112.2 13-174.2 13-169.2 0-315-34.2-384-83.6v-300h71.4zM396.8 13.467c9.4 25.4 24.4 48 43.4 66.2l-158.2 252.4c-12.2-2.6-25-4-38-4-82.2 0-151.6 55.6-172.6 131h-71.4v-460.8c69-49.4 214.8-83.6 384-83.6 1.8 0 3.6 0 5.2 0-6.8 32.8-4.2 66.8 7.6 98.8zM665.8 901.667l-270.6-299c17.6-27.6 27.8-60.6 27.8-95.6 0-51.2-21.6-97.2-56-130l157.8-251.6c33.8 7.8 69.2 5.6 102.4-6.8 44.8-16.8 80.4-49.8 100.4-93.4 6.4-14 11-28.6 13.6-43.4 10 5.2 19 10.8 26.8 16.4v856.8c-24.8 17.8-59.8 33.6-102.2 46.6zM640.2-14.533c-9.2 20.2-25.8 35.6-46.6 43.4-9.4 3.6-19.2 5.2-29 5.2-11.8 0-23.4-2.6-34.4-7.6-20.2-9.2-35.6-25.8-43.4-46.6-7.4-19.8-7-41.4 1.2-60.8 59.2 5.2 113.4 14.6 159.8 27.2 0.6 13.4-1.8 26.8-7.6 39.2z" />
<glyph unicode="&#xe927;" glyph-name="comparison-sdk" horiz-adv-x="768" d="M117.2 293.867l-117.2 45.2v-340.8c27.8-20 68-37.4 117.2-51v346.6zM481.2 500.267l-316 122.2-165.2-64v-116.4l165.2-64zM566.2 430.267l-353-136.4v-366.8c52.2-8 110-12.4 170.8-12.4 65.2 0 127 5.2 182.2 14.2v501.4zM384 938.667c-169.2 0-315-34.2-384-83.6v-193.6l148 57.2c11.2 4.4 23.4 4.4 34.6 0l448-173.2c0.2-0.2 0.6-0.2 0.8-0.4v0c0 0 0 0 0 0 2.2-0.8 4.4-1.8 6.4-3 0.2 0 0.2-0.2 0.4-0.2 1-0.6 2-1.2 2.8-1.8 0 0 0 0 0.2 0 0.8-0.6 1.6-1.2 2.4-1.8 0.2-0.2 0.4-0.2 0.6-0.4 0.8-0.6 1.6-1.4 2.4-2 0.2-0.2 0.4-0.2 0.4-0.4 0.6-0.6 1.2-1.2 2-2 0.2-0.2 0.2-0.4 0.4-0.4 0.8-0.8 1.4-1.6 2-2.4 0.2-0.2 0.2-0.2 0.4-0.4 0.6-0.8 1.2-1.6 1.8-2.4 0 0 0 0 0-0.2 0.6-1 1.2-1.8 1.8-2.8 0 0 0-0.2 0.2-0.2 1.2-2 2.2-4 3-6.2 0 0 0 0 0-0.2 0.8-2.2 1.6-4.4 2-6.6 0-0.2 0-0.2 0-0.4 0.4-2.2 0.8-4.4 1-6.6 0-0.2 0-0.4 0-0.8 0-1 0.2-2.2 0.2-3.4v-549.8c44 13.2 80.2 29.4 105.8 47.8v856.6c-68.6 49.4-214.4 83.6-383.6 83.6z" />
<glyph unicode="&#xe928;" glyph-name="sql-backup" horiz-adv-x="768" d="M428 625.467v-4.8c0-26.6-21.4-48-48-48s-48 21.4-48 48v2.8c-87-23-151.4-102.6-151.4-196.8 0-112.2 91.4-203.6 203.6-203.6s203.4 91.4 203.4 203.6c0 97.2-68.4 178.6-159.6 198.8zM384 341.267c-47.2 0-85.4 38.2-85.4 85.4s38.2 85.4 85.4 85.4 85.4-38.2 85.4-85.4c0-47.2-38.2-85.4-85.4-85.4zM384 938.667c-169.2 0-315-34.2-384-83.6v-856.8c69-49.4 214.8-83.6 384-83.6s315 34.2 384 83.6v856.8c-69 49.4-214.8 83.6-384 83.6zM384 127.067c-165.2 0-299.6 134.4-299.6 299.6s134.4 299.6 299.6 299.6 299.6-134.4 299.6-299.6-134.4-299.6-299.6-299.6z" />
<glyph unicode="&#xe929;" glyph-name="dlm-automation" horiz-adv-x="768" d="M384 938.667c-108 0-206.2-14-281.2-36.8 8.6-3 17-6.8 25.2-11 49.8-25.6 86.6-69.2 103.8-122.4 35.2-110.2-25.6-228.4-135.8-263.8-21-6.8-42.8-10.2-64.2-10.2-10.6 0-21.2 0.8-31.8 2.4v-365c3.6-0.2 7.4-0.2 11.2-0.4 20-0.8 39.2-1.4 58-0.4l43.8 108c5.2 12.6 15.4 22.6 28.2 27.2 16.4 6 34.4 11.8 51.8 17.4 16.6 5.4 33.8 11 48.8 16.4 12.6 4.6 26.6 3.6 38.4-2.6l101.6-53c30.2 23.2 58.2 49.2 83.4 77.6l-45.6 105.2c-6.4 14.8-5 31.8 3.8 45.2 17.6 27 28 52.2 34 81.4 3.4 17 15.8 30.8 32.2 36l111 35.8c2.4 18.6 3 37.8 3.8 57.8s1.4 39.2 0.4 58l-108 43.8c-12.6 5.2-22.6 15.4-27.2 28.2-6 16.4-11.8 34.4-17.4 51.8-5.4 16.6-11 33.8-16.4 48.8-2.8 7.6-3.4 15.6-2.2 23.4-16 0.8-32.6 1.2-49.6 1.2zM535 929.067l-1.4-2.6c3.6-10.4 7-21.2 10.4-31.6 3.2-9.6 6.2-19.4 9.4-28.8l114.6-46.4c15.6-6.2 26.6-20.2 29.4-36.8 5.8-36 4.6-70 3.4-102.8s-2.4-66.8-10.8-102.2c-3.8-16.4-16-29.4-32-34.6l-113.2-36.6c-6.6-22.2-15.4-43.2-27-64l47.6-110c7-16.4 4.4-35.4-6.8-49.2-41.8-51.6-90.6-97-145-134.8-14.6-10.2-33.8-11.4-49.6-3.2l-109.8 57.2c-10.4-3.6-21.2-7-31.6-10.4-9.6-3.2-19.4-6.2-28.8-9.4l-46.4-114.6c-6.2-15.6-20.2-26.6-36.8-29.4-21-3.4-41.4-4.4-61.2-4.4-14.2 0-28 0.6-41.6 1-2.6 0-5.2 0.2-7.6 0.2v-37.6c68.8-49.2 214.6-83.4 383.8-83.4s315 34.2 384 83.6v856.8c-47.2 33.8-130.6 60.6-233 74zM66.8 596.067c59.8 19.2 92.8 83.4 73.6 143-9.4 29-29.4 52.6-56.4 66.4-16.4 8.4-34 12.6-52 12.6-10.6 0-21.4-1.4-32-4.6v-218.2c21.6-6.4 44.8-6.2 66.8 0.8z" />
<glyph unicode="&#xe92a;" glyph-name="stop" d="M213.333 725.334h597.333v-597.333h-597.333v597.333z" />
<glyph unicode="&#xe92b;" glyph-name="lock" d="M768 469.334v170.667c0 140.8-115.2 256-256 256s-256-115.2-256-256v-170.667h-85.333v-405.333c106.667-42.667 226.133-64 341.333-64 115.2-4.267 234.667 17.067 341.333 64v405.333h-85.333zM384 640c0 72.533 55.467 128 128 128s128-55.467 128-128v-170.667h-256v170.667z" />
<glyph unicode="&#xe92c;" glyph-name="large-tiles" d="M128 384h341.333v-341.333h-341.333v341.333zM554.667 384h341.333v-341.333h-341.333v341.333zM128 810.667h341.333v-341.333h-341.333v341.333zM554.667 810.667h341.333v-341.333h-341.333v341.333z" />
<glyph unicode="&#xe92d;" glyph-name="small-tiles" d="M128 597.334h341.333v-128h-341.333v128zM554.667 597.334h341.333v-128h-341.333v128zM128 384h341.333v-128h-341.333v128zM554.667 384h341.333v-128h-341.333v128zM128 170.667h341.333v-128h-341.333v128zM554.667 170.667h341.333v-128h-341.333v128zM128 810.667h341.333v-128h-341.333v128zM554.667 810.667h341.333v-128h-341.333v128z" />
<glyph unicode="&#xe92e;" glyph-name="table-expand-small" d="M128 170.667h768v-128h-768v128zM128 384h768v-128h-768v128zM128 597.334h768v-128h-768v128zM128 810.667h768v-128h-768v128z" />
<glyph unicode="&#xe92f;" glyph-name="table-expand-medium" d="M128 213.334h768v-170.667h-768v170.667zM128 512h768v-170.667h-768v170.667zM128 810.667h768v-170.667h-768v170.667z" />
<glyph unicode="&#xe930;" glyph-name="table-expand-large" d="M128 256h768v-170.667h-768v170.667zM128 768h768v-170.667h-768v170.667z" />
<glyph unicode="&#xe931;" glyph-name="target" d="M896 512h-42.667c-3.904-0.279-7.534-1.038-10.967-2.223l0.3 0.090c-31.49 121.884-125.582 215.977-245.095 246.945l-2.371 0.522c1.095 3.132 1.855 6.763 2.125 10.529l0.008 0.137v42.667c0 23.564-19.103 42.667-42.667 42.667v0h-85.333c-23.564 0-42.667-19.103-42.667-42.667v0-42.667c0.279-3.904 1.038-7.534 2.223-10.967l-0.090 0.3c-121.884-31.49-215.977-125.582-246.945-245.095l-0.522-2.371c-3.132 1.095-6.763 1.855-10.529 2.125l-0.137 0.008h-42.667c-23.564 0-42.667-19.103-42.667-42.667v0-85.333c0-23.564 19.103-42.667 42.667-42.667v0h42.667c3.904 0.279 7.534 1.038 10.967 2.223l-0.3-0.090c31.49-121.884 125.582-215.977 245.095-246.945l2.371-0.522c-1.095-3.132-1.855-6.763-2.125-10.529l-0.008-0.137v-42.667c0-23.564 19.103-42.667 42.667-42.667v0h85.333c23.564 0 42.667 19.103 42.667 42.667v0 42.667c-0.279 3.904-1.038 7.534-2.223 10.967l0.090-0.3c121.884 31.49 215.977 125.582 246.945 245.095l0.522 2.371c3.132-1.095 6.763-1.855 10.529-2.125l0.137-0.008h42.667c23.564 0 42.667 19.103 42.667 42.667v0 85.333c0 23.564-19.103 42.667-42.667 42.667v0zM512 170.667c-141.385 0-256 114.615-256 256s114.615 256 256 256c141.385 0 256-114.615 256-256v0c0-141.385-114.615-256-256-256v0zM682.667 426.667c0-94.257-76.41-170.667-170.667-170.667s-170.667 76.41-170.667 170.667c0 94.257 76.41 170.667 170.667 170.667s170.667-76.41 170.667-170.667z" />
<glyph unicode="&#xe932;" glyph-name="sql-scripts-manager" horiz-adv-x="768" d="M768-1.733v56.2h-330.6c-26.6 0-48 21.4-48 48s21.4 48 48 48h330.6v99.8h-271c-26.6 0-48 21.4-48 48s21.4 48 48 48h271v99.8h-222.8c-26.6 0-48 21.4-48 48s21.4 48 48 48h222.8v134.6h-473.4c30.2-51.2 45-106.2 44.4-166.4-0.8-81-28.8-158.6-55.8-233.8-25.4-70.2-49.2-136.4-49.8-200-0.6-58.8 19.8-109.8 63.8-158.8 28-2 57-3 86.8-3 169.2 0 315 34.2 384 83.6zM131.4 77.467c0.8 81 28.8 158.6 55.8 233.8 25.4 70.2 49.2 136.4 49.8 200 0.6 67.2-26.2 124.2-84 179.6-15 14.4-19.8 36.6-12.2 55.8s26.6 32 47.4 32h579.8v76.4c-69 49.4-214.8 83.6-384 83.6s-315-34.2-384-83.6v-856.8c35.8-25.6 92.4-47.2 162.4-62-21.2 44-31.4 90.8-31 141.2z" />
<glyph unicode="&#xe933;" glyph-name="readyroll" horiz-adv-x="768" d="M384 938.667c-168.533 0-315.733-34.133-384-83.2v-857.6c68.267-49.067 215.467-83.2 384-83.2s315.733 34.133 384 83.2v857.6c-68.267 49.067-215.467 83.2-384 83.2zM618.667 488.534c-113.067 0-204.8-91.733-204.8-204.8v-179.2c0-26.667-22.4-49.067-49.067-49.067-25.6 0-46.933 21.333-46.933 46.933v179.2c0 80 30.933 155.733 88.533 212.267 56.533 56.533 132.267 88.533 212.267 88.533 25.6 0 46.933-21.333 46.933-46.933 0-24.533-22.4-46.933-46.933-46.933zM618.667 701.867c-112 0-216.533-43.733-296.533-122.667-80-80-123.733-184.533-123.733-295.467v-179.2c0-27.733-20.267-49.067-46.933-49.067-25.6 0-46.933 21.333-46.933 46.933v179.2c0 136.533 53.333 265.6 151.467 363.733s226.133 150.4 362.667 150.4c25.6 0 46.933-21.333 46.933-46.933 0-24.533-22.4-46.933-46.933-46.933z" />
<glyph unicode="&#xe934;" glyph-name="sql-multi-script" horiz-adv-x="768" d="M192 278.4h-192v-279.467c40.533-28.8 108.8-53.333 192-68.267v347.733zM384 938.667c-169.6 0-314.667-34.133-384-83.2v-481.067h240c26.667 0 48-21.333 48-48v-407.467c30.933-2.133 62.933-4.267 96-4.267 169.6 0 314.667 34.133 384 83.2v857.6c-69.333 49.067-214.4 83.2-384 83.2zM480 280.534c0-26.667-21.333-48-48-48s-48 21.333-48 48v189.867h-188.8c-26.667 0-48 21.333-48 48s21.333 48 48 48h236.8c26.667 0 48-21.333 48-48v-237.867zM672 518.4c0-26.667-21.333-48-48-48s-48 21.333-48 48v144h-144c-26.667 0-48 21.333-48 48s21.333 48 48 48h192c26.667 0 48-21.333 48-48v-192z" />
<glyph unicode="&#xe935;" glyph-name="sql-index-manager" horiz-adv-x="768" d="M417.067 283.734c0 14.933 6.4 27.733 18.133 37.333l141.867 116.267v485.333c-57.6 10.667-123.733 16-193.067 16-1.067 0-1.067 0-2.133 0v-360.533c0-14.933-6.4-28.8-18.133-37.333l-172.8-138.667v-470.4c57.6-10.667 123.733-16 193.067-16 10.667 0 22.4 0 33.067 0v368zM94.933 424.534c0 14.933 6.4 28.8 18.133 37.333l172.8 138.667v333.867c-125.867-9.6-230.4-39.467-285.867-78.933v-856.533c23.467-17.067 55.467-32 94.933-43.733v469.333zM673.067 899.2v-484.267c0-14.933-6.4-27.733-18.133-37.333l-141.867-116.267v-339.2c112 12.8 204.8 40.533 254.933 76.8v856.533c-23.467 16-55.467 30.933-94.933 43.733z" />
<glyph unicode="&#xe936;" glyph-name="sql-code-guard" horiz-adv-x="768" d="M384 362.667c35.2 0 64 28.8 64 64s-28.8 64-64 64-64-28.8-64-64c0-35.2 28.8-64 64-64zM384 237.867c93.867 0 184.533 21.333 264.533 59.733 44.8 22.4 85.333 49.067 119.467 81.067v93.867c-34.133 32-74.667 59.733-119.467 81.067-80 39.467-170.667 59.733-264.533 59.733s-184.533-19.2-264.533-58.667c-44.8-22.4-85.333-49.067-119.467-81.067v-93.867c34.133-32 74.667-59.733 119.467-81.067 80-39.467 170.667-60.8 264.533-60.8zM384 586.667c87.467 0 160-71.467 160-160s-71.467-160-160-160-160 71.467-160 160 72.533 160 160 160zM76.8 641.067c92.8 45.867 199.467 70.4 307.2 70.4s214.4-24.533 307.2-70.4c26.667-13.867 52.267-28.8 76.8-44.8v259.2c-69.333 49.067-214.4 83.2-384 83.2s-314.667-34.133-384-83.2v-259.2c24.533 16 50.133 30.933 76.8 44.8zM691.2 212.267c-92.8-45.867-199.467-70.4-307.2-70.4s-214.4 24.533-307.2 70.4c-26.667 13.867-52.267 28.8-76.8 44.8v-259.2c69.333-49.067 214.4-83.2 384-83.2s314.667 34.133 384 83.2v259.2c-24.533-16-50.133-30.933-76.8-44.8z" />
<glyph unicode="&#xe937;" glyph-name="sql-clone" horiz-adv-x="768" d="M89.6 755.2c3.2 0 6.4 0 9.6 0 8.533 9.6 18.133 20.267 32 30.933 29.867 22.4 78.933 48 151.467 44.8 13.867 10.667 34.133 23.467 59.733 32 41.6 13.867 106.667 20.267 183.467-25.6 16 0 40.533-1.067 68.267-9.6 38.4-11.733 89.6-39.467 124.8-103.467 17.067-4.267 34.133-10.667 49.067-18.133v149.333c-69.333 49.067-214.4 83.2-384 83.2s-314.667-34.133-384-83.2v-126.933c27.733 17.067 58.667 26.667 89.6 26.667zM610.133 200.534c5.333 19.2 22.4 33.067 42.667 34.133 48 3.2 103.467 33.067 115.2 70.4v258.133c-9.6 37.333-43.733 67.2-84.267 69.333-18.133 1.067-34.133 12.8-40.533 28.8-17.067 38.4-42.667 64-76.8 74.667-24.533 7.467-44.8 5.333-44.8 5.333-11.733-2.133-23.467 1.067-34.133 7.467-40.533 26.667-80 35.2-114.133 23.467-23.467-8.533-38.4-22.4-38.4-22.4-10.667-11.733-25.6-17.067-40.533-14.933-40.533 4.267-73.6-2.133-100.267-21.333-18.133-12.8-26.667-27.733-27.733-29.867-9.6-20.267-30.933-30.933-53.333-25.6-7.467 2.133-14.933 2.133-22.4 2.133-23.467 0-48-14.933-68.267-40.533-9.6-11.733-17.067-24.533-22.4-38.4v-288c12.8-21.333 29.867-37.333 53.333-48 29.867-13.867 57.6-14.933 58.667-14.933 19.2 0 37.333-11.733 43.733-29.867 12.8-33.067 46.933-66.133 90.667-64 14.933 1.067 25.6 4.267 42.667 12.8 19.2 9.6 42.667 6.4 56.533-9.6 2.133-2.133 17.067-16 39.467-23.467 28.8-9.6 58.667-3.2 89.6 20.267 10.667 7.467 22.4 10.667 36.267 8.533 2.133 0 24.533-3.2 48 4.267 26.667 6.4 42.667 23.467 51.2 51.2zM541.867 551.467c4.267-7.467 5.333-16 3.2-24.533l-37.333-204.8-2.133-17.067c-1.067-9.6-6.4-19.2-13.867-24.533-29.867-24.533-72.533-38.4-117.333-38.4-41.6 0-81.067 11.733-110.933 33.067-8.533 6.4-13.867 14.933-16 25.6l-4.267 23.467-40.533 202.667c-2.133 10.667 0 20.267 5.333 28.8-11.733 4.267-28.8 7.467-54.4 2.133-21.333-4.267-42.667 9.6-46.933 30.933s9.6 42.667 30.933 46.933c36.267 7.467 69.333 6.4 98.133-5.333 12.8-4.267 23.467-10.667 33.067-18.133 29.867 8.533 66.133 13.867 104.533 13.867s74.667-4.267 105.6-13.867c29.867 20.267 76.8 29.867 133.333 14.933 21.333-5.333 33.067-27.733 27.733-49.067s-27.733-33.067-49.067-27.733c-20.267 4.267-37.333 3.2-49.067 1.067zM282.667 531.2l39.467-193.067c0-1.067 0-1.067 0-1.067l1.067-6.4c14.933-6.4 32-10.667 51.2-10.667 20.267 0 40.533 4.267 55.467 12.8v0c0 1.067 0 1.067 0 1.067l36.267 196.267c-24.533 8.533-56.533 12.8-91.733 12.8-35.2 1.067-67.2-3.2-91.733-11.733zM690.133 142.934c-21.333-44.8-59.733-75.733-110.933-88.533v-123.733c82.133 14.933 148.267 38.4 187.733 67.2v173.867c-22.4-12.8-49.067-23.467-76.8-28.8zM484.267 30.934c-25.6-11.733-50.133-14.933-72.533-14.933-23.467 0-44.8 5.333-61.867 10.667-19.2 6.4-35.2 16-46.933 24.533-5.333-2.133-11.733-4.267-18.133-5.333v-126.933c32-2.133 65.067-4.267 100.267-4.267s68.267 1.067 100.267 4.267v112h-1.067zM187.733 49.067c-18.133 5.333-34.133 13.867-50.133 25.6-23.467 16-42.667 38.4-57.6 62.933-18.133 3.2-42.667 9.6-67.2 21.333-4.267 1.067-8.533 3.2-12.8 6.4v-166.4c40.533-28.8 106.667-52.267 187.733-67.2v117.333z" />
<glyph unicode="&#xe938;" glyph-name="sql-data-generator" horiz-adv-x="768" d="M710 30.067c-59.6 0-119.4 15.8-173.4 46.6-88.2 50.4-149.4 134.8-168 231.6-5 26 12 51.2 38 56.2s51.2-12 56.2-38c13.4-69.2 57.6-130 121.4-166.4 57-32.6 122.8-42 183.6-26.8v721.8c-43 30.8-115.6 55.6-205.2 70 33.2-53.6 51.4-116.6 51.6-182.2 0.4-101.6-42.2-196.8-116.6-261.2-9-7.8-20.2-11.8-31.4-11.8-13.4 0-26.8 5.6-36.4 16.6-17.4 20-15.2 50.4 4.8 67.8 53.4 46.2 83.8 114.8 83.4 188.4-0.2 73.6-31.2 142-84.8 187.8-2.8 2.4-5.2 5-7.4 7.8-14 0.4-28 0.8-42.4 0.8-168.6-0.4-314.4-34.6-383.4-84v-377.4c87.6 50.6 190.8 61.2 283.6 29.2 25-8.6 38.4-36 29.6-61-8.6-25-36-38.4-61-29.6-66.6 23-141.4 15.2-204.8-22-17.4-10-33.2-22-47.4-35.4v-360.6c69-49.4 214.8-83.6 384-83.6s315 34.2 384 83.6v36.8c-19.2-3.4-38.6-5-58-5z" />
<glyph unicode="&#xe939;" glyph-name="sql-prompt" horiz-adv-x="768" d="M384 938.667c-169.2 0-315-34.2-384-83.6v-856.8c69-49.4 214.8-83.6 384-83.6s315 34.2 384 83.6v856.8c-69 49.4-214.8 83.6-384 83.6zM708.6 379.667c0-69.2-56.2-125.4-125.4-125.4h-15.6c-26.6 0-48 21.4-48 48s21.4 48 48 48h15.6c16 0 29.4 13.4 29.4 29.4v208.4c0 16-13.4 29.4-29.4 29.4h-398.4c-16 0-29.4-13.4-29.4-29.4v-208.4c0-16 13.4-29.4 29.4-29.4h154.2c13.4 0 26.2-5.6 35.4-15.6l143.8-156.8c18-19.6 16.6-50-3-67.8-9.2-8.4-20.8-12.6-32.4-12.6-13 0-26 5.2-35.4 15.6l-129.4 141.2h-133.2c-69.2 0-125.4 56.2-125.4 125.4v208.4c0 69.2 56.2 125.4 125.4 125.4h398.2c69.2 0 125.4-56.2 125.4-125.4v-208.4z" />
<glyph unicode="&#xe93a;" glyph-name="sql-source-control" horiz-adv-x="768" d="M310.4 739.067h457.6v116c-69 49.4-214.8 83.6-384 83.6s-315-34.2-384-83.6v-644.8h457.6c51.8 0 94 42.2 94 94v34.2c0 51.8-42.2 94-94 94h-16.4c-26.6 0-48 21.4-48 48s21.4 48 48 48h16.4c104.8 0 190-85.2 190-190v-34.2c0-104.8-85.2-190-190-190h-457.6v-116c69-49.4 214.8-83.6 384-83.6s315 34.2 384 83.6v644.8h-457.6c-51.8 0-94-42.2-94-94v-34.2c0-51.8 42.2-94 94-94h16.4c26.6 0 48-21.4 48-48s-21.4-48-48-48h-16.4c-104.8 0-190 85.2-190 190v34.2c0 104.8 85.2 190 190 190z" />
<glyph unicode="&#xe93b;" glyph-name="sql-change-automation" horiz-adv-x="768" d="M619.333 479.734c16.667-73.6-1.467-154-55.733-214.267-43.067-48-102.133-76.267-166.533-79.733-4.4-0.267-8.933-0.4-13.333-0.4-59.6 0-116.267 21.733-160.933 61.867-13.067 11.733-24.8 24.8-34.933 38.8l-187.867-84.533v-203.2c69.067-49.333 214.8-83.6 384-83.6s314.933 34.267 384 83.6v548.267l-148.667-66.8zM142.933 413.734c-3.467 64.4 18.4 126.267 61.467 174.267 88.933 98.933 241.867 107.333 340.8 18.4 13.333-11.867 24.933-24.933 34.8-38.933l188 84.4v203.2c-69.067 49.333-214.8 83.6-384 83.6s-314.933-34.267-384-83.6v-548.267l148.533 66.8c-2.933 13.067-4.8 26.533-5.6 40.133zM384 571.867c-39.867 0-79.6-16.267-108.267-48.267-25.867-28.933-39.067-66.267-37.067-104.933 2.133-38.667 19.2-74.267 48.133-100.267 28.933-25.867 66.133-39.067 104.933-37.067 38.8 2.133 74.4 19.2 100.267 48 53.467 59.6 48.533 151.733-11.067 205.333-27.6 25.067-62.4 37.2-96.933 37.2z" />
<glyph unicode="&#xe93c;" glyph-name="sql-estate-manager" horiz-adv-x="768" d="M360.133 331.734c-34.4 6.4-63.6 16.933-83.2 30.933-12.533 9.067-20 23.6-20 38.933v163.467l-256.8 97.067v-663.733c29.333-20.933 72.533-39.333 125.733-53.333v149.067c0 15.467 7.467 30 20 38.933 27.733 20 74.933 32.933 129.6 36.533l84.667 162.133zM484.133 934.667v-166.4c46.533-4.933 86.4-17.333 110.933-34.933 12.533-9.067 20-23.6 20-38.933v-161.333l152.933-57.733v379.733c-54.933 39.467-158.533 68.933-283.867 79.6zM304.933 74.667h-0.133c-36.4 0-64.533-5.067-82.8-10.8v-138.133c53.733-7.467 107.867-11.2 162.133-10.933h4v149.067c-18.133 5.6-46.4 10.8-82.933 10.8h-0.267zM256.933 694.267c0 15.467 7.467 30 20 38.933 24.533 17.6 64.4 30 110.933 34.933v170.533h-4c-169.067 0-314.933-34.133-383.867-83.6v-90.4l256.933-96.8v26.4zM352.933 599.734v-167.733c18.133-5.6 46.533-10.8 82.933-10.8s64.8 4.933 82.933 10.8v232c-18.133 5.6-46.533 10.8-82.933 10.8s-64.8-4.933-82.933-10.8v-64.267zM614.8 401.734h0.133c0-15.467-7.467-30-20-38.933-27.733-20-74.933-32.933-129.6-36.533l-84.8-161.733c34.4-6.4 63.6-16.933 83.2-30.933 12.533-9.067 20-23.6 20-38.933v-175.333c125.333 10.4 228.933 40.133 283.867 79.6v373.733l-152.933 57.6v-28.533z" />
<glyph unicode="&#xe93d;" glyph-name="home" d="M512 853.334l328.533-328.533c8.533-8.533 12.8-21.333 12.8-34.133v-448h-256v256h-170.667v-256h-256v448c0 12.8 4.267 25.6 12.8 34.133l328.533 328.533z" />
<glyph unicode="&#xe93e;" glyph-name="sort-arrows" d="M725.333 469.334l-213.333 213.333-213.333-213.333h426.667zM298.667 384l213.333-213.333 213.333 213.333h-426.667z" />
<glyph unicode="&#xe93f;" glyph-name="processes" d="M874.667 768h-725.333c-11.782 0-21.333-9.551-21.333-21.333v0-128c0-11.782 9.551-21.333 21.333-21.333v0h725.333c11.782 0 21.333 9.551 21.333 21.333v0 128c0 11.782-9.551 21.333-21.333 21.333v0zM853.333 640h-298.667v85.333h298.667zM874.667 512h-725.333c-11.782 0-21.333-9.551-21.333-21.333v0-128c0-11.782 9.551-21.333 21.333-21.333v0h725.333c11.782 0 21.333 9.551 21.333 21.333v0 128c0 11.782-9.551 21.333-21.333 21.333v0zM853.333 384h-469.333v85.333h469.333zM874.667 256h-725.333c-11.782 0-21.333-9.551-21.333-21.333v0-128c0-11.782 9.551-21.333 21.333-21.333v0h725.333c11.782 0 21.333 9.551 21.333 21.333v0 128c0 11.782-9.551 21.333-21.333 21.333v0zM853.333 128h-170.667v85.333h170.667z" />
<glyph unicode="&#xe940;" glyph-name="arrow-drop-up" d="M334.933 377.6l177.067 177.067 177.067-177.067c3.771-3.845 6.099-9.117 6.099-14.934 0-11.782-9.551-21.333-21.333-21.333-0.044 0-0.088 0-0.132 0h-323.406c-0.037 0-0.081 0-0.125 0-11.782 0-21.333 9.551-21.333 21.333 0 5.816 2.328 11.089 6.102 14.937l-0.003-0.003z" />
<glyph unicode="&#xe941;" glyph-name="arrow-drop-down" d="M334.933 475.734l177.067-177.067 177.067 177.067c3.771 3.845 6.099 9.117 6.099 14.934 0 11.782-9.551 21.333-21.333 21.333-0.044 0-0.088 0-0.132 0h-323.406c-0.037 0-0.081 0-0.125 0-11.782 0-21.333-9.551-21.333-21.333 0-5.816 2.328-11.089 6.102-14.937l-0.003 0.003z" />
<glyph unicode="&#xe942;" glyph-name="arrow-right-link" d="M669.013 486.827v0l-301.653 302.080c-7.712 7.668-18.343 12.407-30.080 12.407s-22.368-4.74-30.082-12.409l0.002 0.002c-7.795-7.733-12.621-18.45-12.621-30.293s4.826-22.56 12.618-30.291l301.656-301.656-301.653-301.653c-7.795-7.733-12.621-18.45-12.621-30.293s4.826-22.56 12.618-30.291l0.003-0.003c7.712-7.668 18.343-12.407 30.080-12.407s22.368 4.74 30.082 12.409l-0.002-0.002 301.653 302.080 60.587 60.16z" />
<glyph unicode="&#xe943;" glyph-name="arrow-left-link" d="M415.147 426.667l301.653 301.653c7.795 7.733 12.621 18.45 12.621 30.293s-4.826 22.56-12.618 30.291l-0.003 0.003c-7.712 7.668-18.343 12.407-30.080 12.407s-22.368-4.74-30.082-12.409l0.002 0.002-301.653-302.080-60.587-60.16 60.587-60.16 301.653-302.080c7.712-7.668 18.343-12.407 30.080-12.407s22.368 4.74 30.082 12.409l-0.002-0.002c7.795 7.733 12.621 18.45 12.621 30.293s-4.826 22.56-12.618 30.291l-0.003 0.003z" />
<glyph unicode="&#xe944;" glyph-name="arrow-up-link" d="M512 523.52l301.653-301.653c7.733-7.795 18.45-12.621 30.293-12.621s22.56 4.826 30.291 12.618l0.003 0.003c7.668 7.712 12.407 18.343 12.407 30.080s-4.74 22.368-12.409 30.082l0.002-0.002-302.080 301.653-60.16 60.587-60.16-60.587-302.080-301.653c-7.668-7.712-12.407-18.343-12.407-30.080s4.74-22.368 12.409-30.082l-0.002 0.002c7.733-7.795 18.45-12.621 30.293-12.621s22.56 4.826 30.291 12.618l0.003 0.003z" />
<glyph unicode="&#xe945;" glyph-name="arrow-down-link" d="M512 329.814l-301.653 301.653c-7.733 7.795-18.45 12.621-30.293 12.621s-22.56-4.826-30.291-12.618l-0.003-0.003c-7.668-7.712-12.407-18.343-12.407-30.080s4.74-22.368 12.409-30.082l-0.002 0.002 302.080-301.653 60.16-60.587 60.16 60.587 302.080 301.653c7.668 7.712 12.407 18.343 12.407 30.080s-4.74 22.368-12.409 30.082l0.002-0.002c-7.733 7.795-18.45 12.621-30.293 12.621s-22.56-4.826-30.291-12.618l-0.003-0.003z" />
<glyph unicode="&#xe946;" glyph-name="merge-branch" d="M256 170.667c25.6 0 42.667-17.067 42.667-42.667s-17.067-42.667-42.667-42.667-42.667 17.067-42.667 42.667 17.067 42.667 42.667 42.667zM256 256c-72.533 0-128-55.467-128-128s55.467-128 128-128 128 55.467 128 128-55.467 128-128 128v0zM256 768c25.6 0 42.667-17.067 42.667-42.667s-17.067-42.667-42.667-42.667-42.667 17.067-42.667 42.667 17.067 42.667 42.667 42.667zM256 853.334c-72.533 0-128-55.467-128-128s55.467-128 128-128 128 55.467 128 128-55.467 128-128 128v0zM810.667 247.467v349.867c0 93.867-76.8 170.667-170.667 170.667h-42.667v76.8c0 17.067-21.333 29.867-38.4 17.067l-132.267-136.533 132.267-132.267c17.067-17.067 38.4-4.267 38.4 12.8v76.8h42.667c46.933 0 85.333-38.4 85.333-85.333v-349.867c-55.467-21.333-93.867-81.067-81.067-145.067 8.533-51.2 51.2-89.6 102.4-98.133 81.067-12.8 153.6 46.933 153.6 123.733-4.267 55.467-38.4 102.4-89.6 119.467zM768 85.334c-25.6 0-42.667 17.067-42.667 42.667s17.067 42.667 42.667 42.667 42.667-17.067 42.667-42.667-17.067-42.667-42.667-42.667zM298.667 247.467v358.4c51.2 17.067 85.333 64 85.333 119.467 0 72.533-55.467 128-128 128s-128-55.467-128-128c0-55.467 34.133-102.4 85.333-119.467v-358.4c-51.2-17.067-85.333-64-85.333-119.467 0-72.533 55.467-128 128-128s128 55.467 128 128c0 55.467-34.133 102.4-85.333 119.467zM256 768c25.6 0 42.667-17.067 42.667-42.667s-17.067-42.667-42.667-42.667-42.667 17.067-42.667 42.667c0 25.6 17.067 42.667 42.667 42.667zM256 85.334c-25.6 0-42.667 17.067-42.667 42.667s17.067 42.667 42.667 42.667 42.667-17.067 42.667-42.667c0-25.6-17.067-42.667-42.667-42.667z" />
<glyph unicode="&#xe947;" glyph-name="branch" d="M896 640c0 72.533-55.467 128-128 128s-128-55.467-128-128c0-55.467 34.133-102.4 85.333-119.467v-8.533c0-46.933-38.4-85.333-85.333-85.333h-251.733c-34.133 0-64-8.533-89.6-25.6v204.8c51.2 17.067 85.333 64 85.333 119.467 0 72.533-55.467 128-128 128s-128-55.467-128-128c0-55.467 34.133-102.4 85.333-119.467v-358.4c-51.2-17.067-85.333-64-85.333-119.467 0-72.533 55.467-128 128-128s128 55.467 128 128c0 55.467-34.133 102.4-81.067 119.467v8.533c0 46.933 38.4 85.333 85.333 85.333h251.733c93.867 0 170.667 76.8 170.667 170.667v8.533c51.2 17.067 85.333 64 85.333 119.467zM256 768c25.6 0 42.667-17.067 42.667-42.667s-17.067-42.667-42.667-42.667-42.667 17.067-42.667 42.667 17.067 42.667 42.667 42.667zM256 85.334c-25.6 0-42.667 17.067-42.667 42.667s17.067 42.667 42.667 42.667 42.667-17.067 42.667-42.667-17.067-42.667-42.667-42.667zM768 597.334c-25.6 0-42.667 17.067-42.667 42.667s17.067 42.667 42.667 42.667 42.667-17.067 42.667-42.667-17.067-42.667-42.667-42.667z" />
<glyph unicode="&#xe948;" glyph-name="azure" d="M789.333 213.334c81.067 0 149.333 68.267 149.333 149.333s-68.267 149.333-149.333 149.333c0 140.8-115.2 256-256 256-110.933 0-204.8-72.533-243.2-170.667-4.267 0-8.533 0-12.8 0-106.667 0-192-85.333-192-192s85.333-192 192-192h512z" />
<glyph unicode="&#xe949;" glyph-name="server-cluster" d="M691.2 682.667h-358.4c-21.333 0-34.133-12.8-34.133-34.133v-618.667c0-17.067 12.8-29.867 34.133-29.867h362.667c17.067 0 34.133 12.8 34.133 34.133v614.4c-4.267 21.333-17.067 34.133-38.4 34.133zM341.333 640h341.333v-85.333h-341.333v85.333zM341.333 512h341.333v-85.333h-341.333v85.333zM341.333 384h341.333v-85.333h-341.333v85.333zM652.8 192c-17.067 0-29.867 12.8-29.867 29.867s12.8 29.867 29.867 29.867 29.867-12.8 29.867-29.867-12.8-29.867-29.867-29.867zM469.333 725.334v93.867c0 21.333-12.8 34.133-34.133 34.133h-315.733c-21.333 0-34.133-12.8-34.133-34.133v-576c0-17.067 12.8-29.867 34.133-29.867h136.533v435.2c0 42.667 34.133 76.8 76.8 76.8h136.533zM904.533 853.334h-320c-17.067 0-29.867-12.8-29.867-34.133v-93.867h136.533c42.667 0 76.8-34.133 76.8-76.8v-435.2h136.533c17.067 0 34.133 12.8 34.133 34.133v571.733c0 21.333-12.8 34.133-34.133 34.133z" />
<glyph unicode="&#xe94a;" glyph-name="database-image" d="M853.333 725.334v-597.333h-682.667v597.333h682.667zM917.333 810.667h-810.667c-12.8 0-21.333-8.533-21.333-21.333v-725.333c0-12.8 8.533-21.333 21.333-21.333h810.667c12.8 0 21.333 8.533 21.333 21.333v725.333c0 12.8-8.533 21.333-21.333 21.333v0zM512 640c-68.267 0-132.267-12.8-162.133-34.133v-358.4c29.867-21.333 93.867-34.133 162.133-34.133s132.267 12.8 162.133 34.133v358.4c-29.867 21.333-93.867 34.133-162.133 34.133z" />
<glyph unicode="&#xe94b;" glyph-name="database-clone" d="M213.333 277.334v469.333c34.133 8.533 93.867 21.333 170.667 21.333s136.533-12.8 170.667-21.333v-25.6c25.6 4.267 55.467 4.267 85.333 4.267v72.533c-46.933 34.133-145.067 55.467-256 55.467s-209.067-21.333-256-55.467v-571.733c38.4-29.867 119.467-51.2 213.333-55.467v85.333c-55.467 4.267-98.133 12.8-128 21.333zM640 682.667c-110.933 0-209.067-21.333-256-55.467v-571.733c46.933-34.133 145.067-55.467 256-55.467s209.067 21.333 256 55.467v571.733c-46.933 34.133-145.067 55.467-256 55.467z" />
<glyph unicode="&#xe94c;" glyph-name="blocked" d="M512 853.334c-234.667 0-426.667-192-426.667-426.667s192-426.667 426.667-426.667 426.667 192 426.667 426.667-192 426.667-426.667 426.667zM512 725.334c51.2 0 98.133-12.8 140.8-34.133l-405.333-405.333c-21.333 42.667-34.133 89.6-34.133 140.8 0 166.4 136.533 298.667 298.667 298.667zM512 128c-51.2 0-98.133 12.8-140.8 34.133l405.333 405.333c21.333-42.667 34.133-89.6 34.133-140.8 0-162.133-136.533-298.667-298.667-298.667z" />
<glyph unicode="&#xe94d;" glyph-name="availability-group" d="M320 234.667c-93.867 0-174.933 12.8-234.667 38.4v-119.467c42.667-25.6 132.267-46.933 234.667-46.933 38.4 0 72.533 4.267 106.667 8.533v123.733c-34.133-4.267-68.267-4.267-106.667-4.267zM426.667 550.4l17.067 12.8c29.867 21.333 68.267 34.133 110.933 42.667v51.2c-42.667 25.6-132.267 46.933-234.667 46.933s-192-12.8-234.667-46.933v-115.2c42.667-25.6 132.267-46.933 234.667-46.933 38.4 0 72.533 0 106.667 4.267v51.2zM320 426.667c-93.867 0-174.933 12.8-234.667 38.4v-119.467c42.667-25.6 132.267-46.933 234.667-46.933 38.4 0 72.533 4.267 106.667 8.533v123.733c-34.133 0-68.267-4.267-106.667-4.267zM704-21.333c-102.4 0-192 21.333-234.667 46.933v0 119.467c59.733-25.6 140.8-38.4 234.667-38.4s174.933 12.8 234.667 38.4v-119.467c-42.667-25.6-132.267-46.933-234.667-46.933zM938.667 413.867v0 0 0c-42.667-29.867-132.267-46.933-234.667-46.933s-192 21.333-234.667 46.933v0 115.2c42.667 29.867 132.267 46.933 234.667 46.933s192-21.333 234.667-46.933v0-115.2zM704 170.667c-102.4 0-192 21.333-234.667 46.933v0 119.467c59.733-25.6 140.8-38.4 234.667-38.4s174.933 12.8 234.667 38.4v-119.467c-42.667-25.6-132.267-46.933-234.667-46.933zM576 725.334l128-128 128 128h-64v85.333c0 46.933-38.4 85.333-85.333 85.333h-341.333c-46.933 0-85.333-38.4-85.333-85.333v-64c21.333 0 42.667 0 64 0s42.667 0 64-4.267v68.267h256v-85.333h-64z" />
<glyph unicode="&#xe94e;" glyph-name="metrics" d="M938.667 746.667c0 0.054 0 0.118 0 0.182 0 58.91-47.756 106.667-106.667 106.667s-106.667-47.756-106.667-106.667c0-30.455 12.764-57.929 33.233-77.365l0.046-0.044-104.107-285.44c-11.299-0.387-21.949-2.701-31.783-6.624l0.636 0.224-160.853 162.133c4.243 10.754 6.741 23.206 6.826 36.231v0.035c0 0.065 0 0.141 0 0.218 0 58.91-47.756 106.667-106.667 106.667s-106.667-47.756-106.667-106.667c0-30.040 12.418-57.179 32.4-76.565l0.027-0.026-103.68-286.293c-54.901-4.279-97.83-49.882-97.83-105.512 0-58.439 47.374-105.813 105.813-105.813s105.813 47.374 105.813 105.813c0 30.281-12.72 57.591-33.107 76.879l-0.049 0.046 102.827 284.587c13.097 0.86 25.298 3.604 36.697 7.968l-0.857-0.288 158.293-160.427c-4.743-11.75-7.552-25.369-7.68-39.628v-0.052c0-0.054 0-0.118 0-0.182 0-58.91 47.756-106.667 106.667-106.667s106.667 47.756 106.667 106.667c0 30.455-12.764 57.929-33.233 77.365l-0.046 0.044 104.107 285.867c55.856 3.473 99.842 49.623 99.842 106.047 0 0.218-0.001 0.435-0.002 0.653v-0.033z" />
<glyph unicode="&#xe94f;" glyph-name="database-file" d="M85.333 222.72c68.4-33.141 148.769-52.51 233.662-52.51 7.856 0 15.673 0.166 23.448 0.494l-1.11-0.037v144.64c-6.44-0.225-14.008-0.354-21.606-0.354-84.251 0-164.815 15.785-238.896 44.559l4.501-1.538zM597.333 801.28c-68.4 33.141-148.769 52.51-233.662 52.51-7.856 0-15.673-0.166-23.448-0.494l1.11 0.037c-113.493 0-209.92-16.213-256-52.053v-132.693c68.4-33.141 148.769-52.51 233.662-52.51 7.856 0 15.673 0.166 23.448 0.494l-1.11-0.037v151.467h256zM85.333 443.734c68.4-33.141 148.769-52.51 233.662-52.51 7.856 0 15.673 0.166 23.448 0.494l-1.11-0.037v144.213c-6.462-0.227-14.054-0.356-21.677-0.356-84.226 0-164.765 15.786-238.82 44.561l4.497-1.538zM699.733 725.334h-315.733v-725.333h554.667v486.4zM725.333 580.267l68.267-68.267h-68.267zM853.333 85.334h-384v554.667h170.667v-213.333h213.333z" />
<glyph unicode="&#xe950;" glyph-name="table" d="M128 853.334v-810.667c0-23.564 19.103-42.667 42.667-42.667v0h682.667c23.564 0 42.667 19.103 42.667 42.667v0 810.667zM810.667 682.667v-170.667h-170.667v170.667zM810.667 298.667h-170.667v170.667h170.667zM213.333 469.334h170.667v-170.667h-170.667zM426.667 469.334h170.667v-170.667h-170.667zM597.333 682.667v-170.667h-170.667v170.667zM384 682.667v-170.667h-170.667v170.667zM213.333 256h170.667v-170.667h-170.667zM426.667 85.334v170.667h170.667v-170.667zM640 85.334v170.667h170.667v-170.667z" />
<glyph unicode="&#xe951;" glyph-name="column" d="M341.333-0h341.333c23.564 0 42.667 19.103 42.667 42.667v0 810.667h-426.667v-810.667c0-23.564 19.103-42.667 42.667-42.667v0zM640 85.334h-256v170.667h256zM640 298.667h-256v170.667h256zM640 512h-256v170.667h256z" />
<glyph unicode="&#xe952;" glyph-name="dashboard" d="M85.333 768h298.667v-341.333h-298.667v341.333zM85.333 341.334h469.333v-256h-469.333v256zM640 341.334h298.667v-256h-298.667v256zM469.333 768h469.333v-341.333h-469.333v341.333z" />
<glyph unicode="&#xe953;" glyph-name="arrow-circle" d="M512 853.334c-235.641 0-426.667-191.025-426.667-426.667s191.025-426.667 426.667-426.667c235.641 0 426.667 191.025 426.667 426.667v0c0 235.641-191.025 426.667-426.667 426.667v0zM716.373 469.334h-119.040v-298.667h-170.667v298.667h-119.040c-0.037 0-0.081 0-0.125 0-11.782 0-21.333 9.551-21.333 21.333 0 5.816 2.328 11.089 6.102 14.937l219.73 219.73 219.733-219.733c3.771-3.845 6.099-9.117 6.099-14.934 0-11.782-9.551-21.333-21.333-21.333-0.044 0-0.088 0-0.132 0h0.007z" />
<glyph unicode="&#xe954;" glyph-name="azure-database" d="M844.373 268.8c-0.117 127.158-103.226 230.194-230.4 230.194-100.117 0-185.32-63.857-217.1-153.064l-0.5-1.61h-12.8c-94.99-0.121-171.947-77.154-171.947-172.16 0-95.081 77.079-172.16 172.16-172.16 0.075 0 0.15 0 0.225 0h460.788c74.227 0 134.4 60.173 134.4 134.4s-60.173 134.4-134.4 134.4v0zM85.333 359.254v-136.533c24.596-13.753 53.088-24.781 83.18-31.59l2.153-0.41c4.094 51.561 25.946 97.359 59.363 131.899l-0.056-0.059c-53.518 5.893-102.452 18.838-148.136 37.994l3.496-1.301zM597.333 668.587v132.693c-68.4 33.141-148.769 52.51-233.662 52.51-7.856 0-15.673-0.166-23.448-0.494l1.11 0.037c-113.493 0-209.92-16.213-256-52.053v-132.693c68.4-33.141 148.769-52.51 233.662-52.51 7.856 0 15.673 0.166 23.448 0.494l-1.11-0.037c113.493 0 209.92 15.787 256 52.053zM370.773 392.107c43.65 84.258 127.68 142.243 225.77 148.44l0.79 0.040v39.68c-69.558-27.237-150.097-43.023-234.323-43.023-7.623 0-15.215 0.129-22.776 0.386l1.099-0.030c-6.462-0.227-14.054-0.356-21.677-0.356-84.226 0-164.765 15.786-238.82 44.561l4.497-1.538v-136.533c68.4-33.141 148.769-52.51 233.662-52.51 7.856 0 15.673 0.166 23.448 0.494l-1.11-0.037z" />
<glyph unicode="&#xe955;" glyph-name="star-circle" d="M512 853.334c-235.641 0-426.667-191.025-426.667-426.667s191.025-426.667 426.667-426.667c235.641 0 426.667 191.025 426.667 426.667v0c0 235.641-191.025 426.667-426.667 426.667v0zM682.667 187.734l-170.667 89.6-170.667-89.6 29.867 192-136.533 136.533 192 25.6 85.333 174.933 85.333-174.933 192-25.6-136.533-136.533z" />
<glyph unicode="&#xe956;" glyph-name="circle" d="M512 853.334c-234.667 0-426.667-192-426.667-426.667s192-426.667 426.667-426.667 426.667 192 426.667 426.667-192 426.667-426.667 426.667z" />
<glyph unicode="&#xe957;" glyph-name="script" d="M597.333 853.334h-426.667v-853.333h682.667v597.333l-256 256zM768 85.334h-512v682.667h307.2l204.8-204.8v-477.867zM298.667 469.334h256v-85.333h-256v85.333zM597.333 469.334h85.333v-85.333h-85.333v85.333zM298.667 640h170.667v-85.333h-170.667v85.333zM298.667 298.667h213.333v-85.333h-213.333v85.333z" />
<glyph unicode="&#xe958;" glyph-name="elastic-pool" d="M956.587 486.827l-384 384c-15.424 15.335-36.685 24.814-60.16 24.814s-44.736-9.479-60.164-24.818l-383.996-383.996c-15.335-15.424-24.814-36.685-24.814-60.16s9.479-44.736 24.818-60.164l383.996-383.996c15.424-15.335 36.685-24.814 60.16-24.814s44.736 9.479 60.164 24.818l383.996 383.996c15.335 15.424 24.814 36.685 24.814 60.16s-9.479 44.736-24.818 60.164l0.004-0.004zM341.333 331.52c-22.035-11.988-48.254-19.036-76.119-19.036-3.241 0-6.461 0.095-9.655 0.283l0.441-0.021c-2.754-0.167-5.973-0.263-9.214-0.263-27.865 0-54.085 7.048-76.972 19.459l0.853-0.423v190.293c22.035 11.988 48.254 19.036 76.119 19.036 3.241 0 6.461-0.095 9.655-0.283l-0.441 0.021c2.754 0.167 5.973 0.263 9.214 0.263 27.865 0 54.085-7.048 76.972-19.459l-0.853 0.423zM597.333 103.68c-22.193-11.711-48.503-18.586-76.419-18.586-3.136 0-6.251 0.087-9.344 0.258l0.43-0.019c-2.663-0.152-5.779-0.239-8.914-0.239-27.916 0-54.226 6.874-77.33 19.022l0.911-0.437v190.72c21.884 11.745 47.881 18.646 75.489 18.646 3.463 0 6.902-0.109 10.311-0.323l-0.466 0.023c2.943 0.191 6.381 0.299 9.845 0.299 27.608 0 53.605-6.9 76.359-19.071l-0.87 0.425zM597.333 558.934c-21.884-11.745-47.881-18.646-75.489-18.646-3.463 0-6.902 0.109-10.311 0.323l0.466-0.023c-2.943-0.191-6.381-0.299-9.845-0.299-27.608 0-53.605 6.9-76.359 19.071l0.87-0.425v190.72c22.193 11.711 48.503 18.586 76.419 18.586 3.136 0 6.251-0.087 9.344-0.258l-0.43 0.019c2.663 0.152 5.779 0.239 8.914 0.239 27.916 0 54.226-6.874 77.33-19.022l-0.911 0.437zM853.333 331.52c-22.035-11.988-48.254-19.036-76.119-19.036-3.241 0-6.461 0.095-9.655 0.283l0.441-0.021c-2.754-0.167-5.973-0.263-9.214-0.263-27.865 0-54.085 7.048-76.972 19.459l0.853-0.423v190.293c22.035 11.988 48.254 19.036 76.119 19.036 3.241 0 6.461-0.095 9.655-0.283l-0.441 0.021c2.754 0.167 5.973 0.263 9.214 0.263 27.865 0 54.085-7.048 76.972-19.459l-0.853 0.423z" />
<glyph unicode="&#xe959;" glyph-name="schema" d="M384 554.667h256c23.564 0 42.667 19.103 42.667 42.667v0 256h-341.333v-256c0-23.564 19.103-42.667 42.667-42.667v0zM426.667 725.334h170.667v-85.333h-170.667zM85.333 42.667c0-23.564 19.103-42.667 42.667-42.667v0h256c23.564 0 42.667 19.103 42.667 42.667v0 256h-341.333zM170.667 170.667h170.667v-85.333h-170.667zM597.333 298.667v-256c0-23.564 19.103-42.667 42.667-42.667v0h256c23.564 0 42.667 19.103 42.667 42.667v0 256zM853.333 85.334h-170.667v85.333h170.667zM298.667 384h426.667v-42.667h85.333v42.667c0 47.128-38.205 85.333-85.333 85.333v0h-170.667v42.667h-85.333v-42.667h-170.667c-47.128 0-85.333-38.205-85.333-85.333v0-42.667h85.333z" />
<glyph unicode="&#xe95a;" glyph-name="backup-database" d="M640 444.587v-160.427l101.973-75.093 25.173 34.56-84.48 62.293v138.667h-42.667zM341.333 315.307c-6.44-0.225-14.008-0.354-21.606-0.354-84.251 0-164.815 15.785-238.896 44.559l4.501-1.538v-136.533c67.741-32.408 147.245-51.338 231.169-51.338 8.733 0 17.419 0.205 26.052 0.61l-1.221-0.046h18.347c-11.513 31.756-18.224 68.409-18.347 106.612v0.055zM597.333 668.587v132.693c-68.4 33.141-148.769 52.51-233.662 52.51-7.856 0-15.673-0.166-23.448-0.494l1.11 0.037c-113.493 0-209.92-16.213-256-52.053v-132.693c68.4-33.141 148.769-52.51 233.662-52.51 7.856 0 15.673 0.166 23.448 0.494l-1.11-0.037c113.493 0 209.92 15.787 256 52.053zM341.333 512c0.151 8.011 1.703 15.614 4.42 22.638l-0.154-0.452h-4.267c-6.462-0.227-14.054-0.356-21.677-0.356-84.226 0-164.765 15.786-238.82 44.561l4.497-1.538v-136.533c68.4-33.141 148.769-52.51 233.662-52.51 7.856 0 15.673 0.166 23.448 0.494l-1.11-0.037zM661.333 554.667c-0.119 0-0.26 0-0.402 0-72.83 0-139.062-28.247-188.339-74.383l0.154 0.142-49.92 49.92c-4.12 3.908-9.701 6.312-15.844 6.312-12.725 0-23.040-10.315-23.040-23.040 0-0.57 0.021-1.134 0.061-1.694l-0.004 0.075v-170.667h172.8c12.481 0.314 22.478 10.506 22.478 23.033 0 6.118-2.385 11.679-6.275 15.805l0.011-0.011-39.68 39.253c33.614 30.846 78.582 49.791 127.974 49.92h0.026c106.039 0 192-85.961 192-192s-85.961-192-192-192c-106.039 0-192 85.961-192 192v0h-85.333c0-153.167 124.166-277.333 277.333-277.333s277.333 124.166 277.333 277.333c0 153.167-124.166 277.333-277.333 277.333v0z" />
<glyph unicode="&#xe95b;" glyph-name="briefcase" d="M896 640h-213.333v128c0 23.564-19.103 42.667-42.667 42.667v0h-256c-23.564 0-42.667-19.103-42.667-42.667v0-128h-213.333c-23.564 0-42.667-19.103-42.667-42.667v0-469.333c0-23.564 19.103-42.667 42.667-42.667v0h768c23.564 0 42.667 19.103 42.667 42.667v0 469.333c0 23.564-19.103 42.667-42.667 42.667v0zM426.667 725.334h170.667v-85.333h-170.667z" />
<glyph unicode="&#xe95c;" glyph-name="sql-data-catalog" horiz-adv-x="768" d="M384 938.667c-169.2 0-315.067-34.133-384-83.6v-80.933h607.733c26.533 0 48-21.467 48-48s-21.467-48-48-48h-607.733v-103.6h143.733c26.533 0 48-21.467 48-48s-21.467-48-48-48h-143.733v-103.6h143.733c26.533 0 48-21.467 48-48s-21.467-48-48-48h-143.733v-103.6h143.733c26.533 0 48-21.467 48-48s-21.467-48-48-48h-143.733v-80.933c68.933-49.467 214.8-83.733 384-83.733s315.067 34.267 384 83.6v856.8c-68.933 49.467-214.8 83.6-384 83.6zM607.733 79.2h-265.467c-26.533 0-48 21.467-48 48s21.467 48 48 48h265.467c26.533 0 48-21.467 48-48 0-26.4-21.467-48-48-48zM607.733 278.934h-265.467c-26.533 0-48 21.467-48 48s21.467 48 48 48h265.467c26.533 0 48-21.467 48-48s-21.467-48-48-48zM607.733 478.534h-265.467c-26.533 0-48 21.467-48 48s21.467 48 48 48h265.467c26.533 0 48-21.467 48-48s-21.467-48-48-48z" />
<glyph unicode="&#xe95d;" glyph-name="minus-circle" d="M512 853.334c234.667 0 426.667-192 426.667-426.667s-192-426.667-426.667-426.667-426.667 192-426.667 426.667 192 426.667 426.667 426.667v0zM768 384v85.333h-512v-85.333h512z" />
<glyph unicode="&#xe95e;" glyph-name="virtual-machine" d="M439.467 4.267l-298.667 162.133c-7.637 3.36-12.872 10.861-12.872 19.584 0 0.616 0.026 1.226 0.077 1.828l-0.005-0.079v332.8c0 17.067 17.067 29.867 29.867 21.333l298.667-166.4c7.637-3.36 12.872-10.861 12.872-19.584 0-0.616-0.026-1.226-0.077-1.828l0.005 0.079v-332.8c1.425-2.451 2.266-5.394 2.266-8.533 0-9.499-7.7-17.199-17.199-17.199-6.36 0-11.913 3.452-14.889 8.584l-0.044 0.082zM883.2 166.4l-298.667-162.133c-3.020-5.215-8.574-8.666-14.933-8.666-9.499 0-17.199 7.7-17.199 17.199 0 3.139 0.841 6.082 2.31 8.616l-0.044-0.082v332.8c-0.046 0.524-0.072 1.134-0.072 1.75 0 8.723 5.235 16.223 12.735 19.53l0.137 0.054 298.667 166.4c12.8 8.533 29.867-4.267 29.867-21.333v-332.8c0.046-0.524 0.072-1.134 0.072-1.75 0-8.723-5.235-16.223-12.735-19.53l-0.137-0.054zM520.533 435.2l341.333 187.733c7.181 3.536 12.034 10.801 12.034 19.2s-4.854 15.664-11.909 19.144l-0.125 0.056-341.333 187.733c-2.254 2.023-5.249 3.259-8.533 3.259s-6.279-1.237-8.545-3.27l0.012 0.011-341.333-187.733c-7.181-3.536-12.034-10.801-12.034-19.2s4.854-15.664 11.909-19.144l0.125-0.056 341.333-187.733z" />
<glyph unicode="&#xe95f;" glyph-name="reset" d="M128 810.667h85.333v-469.333h-85.333v469.333zM576 682.667h-29.867v132.267c0 8.533-8.533 17.067-17.067 17.067-4.267 0-8.533 0-12.8-4.267l-251.733-251.733 251.733-251.733c8.533-8.533 17.067-8.533 25.6 0 4.267 4.267 4.267 8.533 4.267 12.8v132.267h29.867c59.733 0 110.933-51.2 110.933-110.933s-51.2-110.933-110.933-110.933c0 0 0 0 0 0v-213.333c179.2 0 324.267 145.067 324.267 324.267s-145.067 324.267-324.267 324.267z" />
<glyph unicode="&#xe960;" glyph-name="arrow-circle-down" d="M512-0c235.6 0 426.667 191.067 426.667 426.667s-191.067 426.667-426.667 426.667-426.667-191.067-426.667-426.667v0c0-235.6 191.067-426.667 426.667-426.667v0zM307.6 384h119.067v298.667h170.667v-298.667h119.067c0 0 0.133 0 0.133 0 11.733 0 21.333-9.6 21.333-21.333 0-5.867-2.267-11.067-6.133-14.933l-219.733-219.733-219.733 219.733c-3.733 3.867-6.133 9.067-6.133 14.933 0 11.733 9.6 21.333 21.467 21.333 0 0 0 0 0 0v0 0z" />
<glyph unicode="&#xe961;" glyph-name="source-control-for-oracle" horiz-adv-x="768" d="M358.8 892.4c12.533 16.4 26.8 31.733 42.8 46.133-5.867 0.133-11.733 0.133-17.6 0.133-51.733 0-101.2-3.2-147.067-9.067-25.733-46.4-42.8-96.667-50.267-148.4-10.4-72.933-1.333-148.667 26-219.067 27.467-70.8 72.4-135.333 133.333-191.867 47.067-43.6 81.067-91.733 101.067-143.333 17.867-46.133 23.733-92.533 17.2-138.133s-25.067-88.667-55.067-127.867c-12.533-16.4-26.8-31.733-42.8-46.133 5.867-0.133 11.733-0.133 17.6-0.133 51.733 0 101.2 3.2 147.067 9.067 25.733 46.4 42.8 96.667 50.267 148.4 10.4 72.933 1.333 148.667-26 219.067-27.467 70.8-72.4 135.333-133.333 191.867-47.067 43.6-81.067 91.733-101.067 143.333-17.867 46.133-23.733 92.533-17.2 138.133s25.067 88.667 55.067 127.867zM229.2-62.666c44.133 22.133 79.067 49.733 103.733 82 19.867 26 32.133 54 36.267 83.067s0.267 59.333-11.6 89.867c-14.667 37.867-40.533 74-76.8 107.6-71.733 66.533-124.8 143.067-157.6 227.467-33.333 85.733-44.267 178.267-31.467 267.467 5.467 38.267 15.333 76 29.2 112.4-50.933-14-92.533-31.733-120.933-52.133v-856.8c43.6-31.333 118.133-56.4 209.733-70.667l19.467 9.733zM538.8 916c-44.133-22.133-79.067-49.733-103.733-82-19.867-26-32.133-54-36.267-83.067s-0.267-59.333 11.6-89.867c14.667-37.867 40.533-74 76.8-107.6 71.733-66.533 124.8-143.067 157.6-227.467 33.333-85.733 44.267-178.267 31.467-267.467-5.467-38.267-15.333-76-29.2-112.4 50.8 13.867 92.4 31.6 120.8 52v856.933c-43.6 31.333-118.133 56.4-209.733 70.667l-19.333-9.733z" />
<glyph unicode="&#xe962;" glyph-name="schema-compare-for-oracle" horiz-adv-x="768" d="M384 938.667c-169.2 0-315.067-34.133-384-83.6v-178.8h143.333c26.533 0 48-21.467 48-48s-21.467-48-48-48h-143.333v-105.6h323.067c26.533 0 48-21.467 48-48s-21.467-48-48-48h-323.067v-105.6h143.333c26.533 0 48-21.467 48-48s-21.467-48-48-48h-143.333v-178.8c68.933-49.467 214.8-83.6 384-83.6s315.067 34.133 384 83.6v856.8c-68.933 49.467-214.8 83.6-384 83.6zM626.533 336.134l-310.8-310.8c-9.333-9.333-21.6-14-34-14s-24.533 4.667-34 14c-18.8 18.8-18.8 49.2 0 67.867l310.933 310.8c12.533 12.533 12.533 32.8 0 45.2l-310.8 310.8c-18.8 18.8-18.8 49.2 0 67.867 18.8 18.8 49.2 18.8 67.867 0l310.8-310.8c49.867-49.733 49.867-131.067 0-180.933z" />
<glyph unicode="&#xe963;" glyph-name="data-compare-for-oracle" horiz-adv-x="768" d="M384 938.667c-169.2 0-315.067-34.133-384-83.6v-856.8c68.933-49.467 214.8-83.6 384-83.6s315.067 34.133 384 83.6v856.8c-68.933 49.467-214.8 83.6-384 83.6zM245.6 248.667c-40.533 6.4-77.6 27.2-104.533 58.4-27.2 31.6-42.133 71.867-42.133 113.6 0 88.133 65.867 162.4 153.333 172.933 26.267 3.2 50.267-15.6 53.333-42 3.2-26.267-15.6-50.267-42-53.333-39.2-4.667-68.667-38-68.667-77.6 0-38.667 27.6-71.067 65.733-77.2 26.133-4.133 44-28.8 39.867-54.933-3.733-23.6-24.133-40.4-47.333-40.4-2.533 0-5.067 0.133-7.6 0.533zM316.667 24.4c-2-0.267-3.867-0.4-5.733-0.4-24 0-44.667 17.867-47.6 42.267-3.2 26.267 15.6 50.267 42 53.333 152.667 18.267 267.733 148.267 267.733 302.267 0 72.933-26.133 143.333-73.6 198.533-47.067 54.533-111.867 90.8-182.533 102.133-26.133 4.133-44 28.8-39.867 54.933s28.8 44 54.933 39.867c93.067-14.8 178.4-62.533 240.133-134.267 62.533-72.533 96.933-165.333 96.933-261.2-0.133-202.533-151.6-373.467-352.4-397.467z" />
<glyph unicode="&#xe964;" glyph-name="star-outline" d="M512 640l76.8-153.6h42.667l123.733-21.333-89.6-85.333-29.867-29.867v-51.2l21.333-123.733-110.933 59.733-34.133 21.333-38.4-21.333-110.933-59.733 21.333 123.733v46.933l-29.867 29.867-89.6 85.333 123.733 21.333h42.667l21.333 42.667 59.733 115.2zM512 832l-132.267-268.8-294.4-42.667 213.333-204.8-51.2-294.4 264.533 136.533 264.533-136.533-51.2 294.4 213.333 204.8-294.4 42.667-132.267 268.8z" />
<glyph unicode="&#xe965;" glyph-name="star" d="M512 832l132.267-268.8 294.4-42.667-213.333-204.8 51.2-294.4-264.533 136.533-264.533-136.533 51.2 294.4-213.333 204.8 294.4 42.667 132.267 268.8z" />
<glyph unicode="&#xe966;" glyph-name="cloud-server" d="M844.8 268.8c0 128-102.4 230.4-230.4 230.4-98.133 0-183.467-64-217.6-153.6v0h-12.8c-93.867 0-170.667-76.8-170.667-170.667s76.8-170.667 170.667-170.667c0 0 0 0 0 0h460.8c72.533 0 132.267 59.733 132.267 132.267s-59.733 132.267-132.267 132.267v0 0zM366.933 388.267c17.067 29.867 38.4 59.733 64 81.067h-302.933v85.333h384v-34.133c12.8 4.267 29.867 8.533 42.667 12.8v277.333c0 25.6-17.067 42.667-42.667 42.667h-384c-25.6 0-42.667-17.067-42.667-42.667v-640c0-25.6 17.067-42.667 42.667-42.667h46.933c-4.267 12.8-4.267 29.867-4.267 42.667 0 115.2 85.333 209.067 196.267 217.6zM128 810.667h384v-85.333h-384v85.333zM128 682.667h384v-85.333h-384v85.333z" />
<glyph unicode="&#xe967;" glyph-name="databases" d="M470 187.734v-119.467c42.667-25.6 132.267-46.933 234.667-46.933s192 21.333 234.667 46.933v119.467c-59.733-25.6-140.8-38.4-234.667-38.4s-174.933 12.8-234.667 38.4zM704.667 618.667c-102.4 0-192-17.067-234.667-46.933v-115.2c42.667-25.6 132.267-46.933 234.667-46.933s192 17.067 234.667 46.933v115.2c-42.667 25.6-132.267 46.933-234.667 46.933zM470 379.734v-119.467c42.667-25.6 132.267-46.933 234.667-46.933s192 21.333 234.667 46.933v119.467c-59.733-25.6-140.8-38.4-234.667-38.4s-174.933 12.8-234.667 38.4zM85.333 399.2v-119.467c42.667-25.6 132.267-46.933 234.667-46.933 37.867 0 74 2.933 106.667 7.867v126.933c-33.333-4.267-68.533-6.933-106.667-6.933-93.867 0.133-174.933 12.933-234.667 38.533zM554.667 668v115.2c-42.667 25.6-132.267 46.933-234.667 46.933s-192-17.067-234.667-46.933v-115.2c42.667-25.6 132.267-46.933 234.667-46.933s192 17.067 234.667 46.933zM85.333 591.2v-119.467c42.667-25.6 132.267-46.933 234.667-46.933 37.867 0 74 2.933 106.667 7.867v126.933c-33.333-4.267-68.533-6.933-106.667-6.933-93.867 0.133-174.933 12.933-234.667 38.533z" />
<glyph unicode="&#xe968;" glyph-name="flyway" horiz-adv-x="768" d="M229.6 221.6c10.8 16.533 17.067 35.2 18.133 54.267l-85.333-17.6c-3.2-0.533-6.667-1.067-9.733-1.067-22.4 0-42.4 15.6-46.933 38.4-5.333 26 11.333 51.333 37.333 56.533l193.867 39.867c30 6.133 56 23.6 72.8 49.333 10.933 16.667 17.467 35.6 18.667 54.933l-85.867-17.6c-3.2-0.667-6.667-1.067-9.733-1.067-22.4 0-42.533 15.733-46.933 38.8-5.2 26 12.533 51.2 38.533 56.4l191.2 39.2c37.467 7.6 59.2 38.133 69.067 55.733 8.533 15.6 14.4 32.8 17.2 50.267l-601.867-123.333v-455.2l154.667 31.733c30.533 6.267 58 24 74.933 50.4zM384 938.667c-168.667 0-315.867-34.267-384-83.2v-162.8l660.4 135.6c14 2.8 27.867-6.267 30.533-20.267l4.4-21.6c11.2-54.133 1.333-114.4-26.667-165.067-30.533-55.2-78-91.733-133.6-103.2l-10.533-2.133c2.533-45.867-9.733-90.933-36-129.867-31.2-46.133-80-77.6-134.4-88.8l-10-2c2.667-45.067-9.467-89.2-34.667-127.333-30.933-46.933-78.4-79.2-133.6-90.667l-175.733-36v-43.6c68-48.8 215.2-83.067 383.867-83.067s315.733 34.267 384 83.2v857.6c-68.267 48.933-215.467 83.2-384 83.2z" />
<glyph unicode="&#xe969;" glyph-name="unpin" d="M729.6 298.667h123.733c0 81.067-55.467 145.067-128 166.4v260.267c46.933 4.267 85.333 42.667 85.333 89.6v38.4h-597.333v-38.4c0 0 0 0 0 0l516.267-516.267zM298.667 640l-140.8 140.8-46.933-42.667 187.733-187.733v-85.333c-72.533-17.067-128-85.333-128-166.4h298.667v-298.667l42.667-42.667 42.667 42.667v294.4l268.8-268.8 46.933 46.933-230.4 226.133-341.333 341.333z" />
<glyph unicode="&#xe96a;" glyph-name="pin" d="M853.333 298.667c0 81.067-55.467 145.067-128 166.4v260.267c46.933 4.267 85.333 42.667 85.333 89.6v38.4h-597.333v-38.4c0-46.933 38.4-85.333 85.333-89.6v-264.533c-72.533-17.067-128-85.333-128-166.4h298.667v-298.667l42.667-42.667 42.667 42.667v298.667h298.667z" />
</font>
</defs>
</svg>
