<svg xmlns="http://www.w3.org/2000/svg" xmlns:xlink="http://www.w3.org/1999/xlink" preserveAspectRatio="xMidYMid" width="71.688" height="48.906" viewBox="0 0 71.688 48.906">
  <defs>
    <style>
      .cls-1 {
        fill: #3c85df;
        filter: url(#drop-shadow-1);
        fill-rule: evenodd;
      }
    </style>

    <filter id="drop-shadow-1" filterUnits="userSpaceOnUse">
      <feOffset dx="2" dy="3.464" in="SourceAlpha"/>
      <feGaussianBlur result="dropBlur"/>
      <feFlood flood-opacity="0.05"/>
      <feComposite operator="in" in2="dropBlur" result="dropShadowComp"/>
      <feComposite in="SourceGraphic" result="shadowed"/>
    </filter>
  </defs>
  <path d="M57.378,14.620 C66.070,17.194 70.416,22.390 70.416,30.209 C70.448,32.588 70.025,34.828 69.146,36.929 C68.267,39.031 67.071,40.863 65.557,42.427 C64.044,43.991 62.277,45.221 60.259,46.117 C58.241,47.013 56.125,47.429 53.912,47.363 C49.256,47.363 45.399,45.702 42.339,42.378 C39.312,39.055 37.798,34.803 37.798,29.623 C37.798,23.042 40.321,17.031 45.367,11.590 C50.445,6.149 56.727,2.793 64.214,1.522 L65.093,2.109 C62.977,3.347 61.203,5.139 59.771,7.484 C58.371,9.765 57.574,12.144 57.378,14.620 ZM33.899,30.209 C33.931,32.588 33.509,34.828 32.630,36.929 C31.751,39.031 30.555,40.863 29.041,42.427 C27.527,43.991 25.761,45.221 23.743,46.117 C21.724,47.013 19.609,47.429 17.396,47.363 C12.740,47.363 8.883,45.702 5.823,42.378 C2.796,39.055 1.282,34.803 1.282,29.623 C1.282,23.042 3.805,17.031 8.851,11.590 C13.929,6.149 20.211,2.793 27.698,1.522 L28.577,2.109 C26.461,3.347 24.687,5.139 23.255,7.484 C21.855,9.765 21.058,12.144 20.862,14.620 C29.554,17.194 33.899,22.390 33.899,30.209 Z" class="cls-1"/>
</svg>
