<?xml version="1.0" encoding="utf-8"?>
<!-- Generator: Adobe Illustrator 19.1.0, SVG Export Plug-In . SVG Version: 6.00 Build 0)  -->
<!DOCTYPE svg PUBLIC "-//W3C//DTD SVG 1.1//EN" "http://www.w3.org/Graphics/SVG/1.1/DTD/svg11.dtd">
<svg version="1.1" id="Layer_1" xmlns="http://www.w3.org/2000/svg" xmlns:xlink="http://www.w3.org/1999/xlink" x="0px" y="0px"
	 width="35px" height="23.2px" viewBox="-24.7 238.9 35 23.2" style="enable-background:new -24.7 238.9 35 23.2;"
	 xml:space="preserve">
<style type="text/css">
	.st0{fill:#3C85DF;}
</style>
<path class="st0" d="M3.7,245.6c4.4,1.3,6.6,3.9,6.6,7.9c0,1.2-0.2,2.3-0.6,3.4c-0.4,1.1-1.1,2-1.8,2.8c-0.8,0.8-1.7,1.4-2.7,1.9
	c-1,0.5-2.1,0.7-3.2,0.6c-2.4,0-4.3-0.8-5.9-2.5c-1.5-1.7-2.3-3.8-2.3-6.5c0-3.3,1.3-6.4,3.8-9.1c2.6-2.8,5.8-4.5,9.5-5.1l0.4,0.3
	c-1.1,0.6-2,1.5-2.7,2.7C4.3,243.1,3.8,244.3,3.7,245.6z M-8.1,253.5c0,1.2-0.2,2.3-0.6,3.4c-0.4,1.1-1.1,2-1.8,2.8
	c-0.8,0.8-1.7,1.4-2.7,1.9c-1,0.5-2.1,0.7-3.2,0.6c-2.4,0-4.3-0.8-5.9-2.5c-1.5-1.7-2.3-3.8-2.3-6.5c0-3.3,1.3-6.4,3.8-9.1
	c2.6-2.8,5.8-4.5,9.5-5.1l0.4,0.3c-1.1,0.6-2,1.5-2.7,2.7c-0.7,1.2-1.1,2.4-1.2,3.6C-10.3,246.9-8.1,249.5-8.1,253.5z"/>
</svg>
