<svg xmlns="http://www.w3.org/2000/svg" width="161" height="80.1" viewBox="0 0 161 80.1"><style type="text/css">.st0{fill:#CC0000;}</style><path class="st0" d="M.1 65.5v-2.2h2.6v2.2h-2.6zm2.6 1.5v9.5h-2.6v-9.5h2.6zm4.5 0v1.3h.1c.3-.6.8-1 1.3-1.2.5-.3 1.1-.4 1.6-.4.7 0 1.3.1 1.7.3.4.2.8.5 1.1.8.3.3.4.7.5 1.2.1.5.2 1 .2 1.6v5.9h-2.7v-5.4c0-.8-.1-1.4-.4-1.8-.2-.4-.7-.6-1.3-.6-.7 0-1.2.2-1.5.6-.3.4-.5 1.1-.5 2.1v5h-2.6v-9.4h2.5zm17.4 10.2c-.1.5-.3.9-.7 1.4-.3.4-.8.8-1.5 1.1-.7.3-1.5.4-2.6.4-.5 0-.9-.1-1.4-.2-.5-.1-.9-.3-1.3-.5s-.7-.6-1-.9c-.3-.4-.4-.8-.5-1.4h2.6c.1.5.4.8.7 1 .4.2.8.3 1.2.3.7 0 1.3-.2 1.6-.7.3-.4.5-1 .5-1.7v-1.3c-.3.5-.7.9-1.2 1.1-.5.2-1.1.4-1.6.4-.7 0-1.3-.1-1.8-.4-.5-.3-.9-.6-1.3-1-.3-.4-.6-.9-.7-1.5-.2-.6-.2-1.2-.2-1.9 0-.6.1-1.2.3-1.8.2-.6.4-1.1.8-1.5.3-.4.8-.8 1.3-1 .5-.3 1.1-.4 1.8-.4.6 0 1.2.1 1.6.3.5.2.9.6 1.2 1.2v-1.2h2.5v8.9c-.1.4-.1.8-.3 1.3zm-3.5-3.2c.3-.1.5-.3.7-.6.2-.2.3-.5.4-.8.1-.3.1-.6.1-1s0-.8-.1-1.1c-.1-.3-.2-.7-.4-.9-.2-.3-.4-.5-.7-.6-.3-.2-.6-.2-1.1-.2-.4 0-.7.1-.9.2-.3.1-.5.3-.7.6-.2.3-.3.5-.4.9v.9c0 .3 0 .7.1 1l.3.9c.2.3.4.5.7.7.3.2.6.3 1 .3.4-.1.7-.1 1-.3zm8.6.2c.4.4 1 .6 1.7.6.5 0 1-.1 1.4-.4.4-.3.6-.5.7-.8h2.3c-.4 1.1-.9 2-1.7 2.4-.8.5-1.7.7-2.8.7-.7 0-1.4-.1-2-.4-.6-.2-1.1-.6-1.5-1-.4-.4-.7-1-1-1.6-.2-.6-.3-1.3-.3-2s.1-1.4.3-2c.2-.6.6-1.1 1-1.6.4-.4.9-.8 1.5-1.1.6-.3 1.3-.4 2-.4.8 0 1.5.2 2.1.5.6.3 1.1.7 1.5 1.3.4.5.7 1.1.8 1.8.2.7.2 1.4.2 2.1h-6.9c.1.9.3 1.5.7 1.9zm3-5c-.3-.3-.8-.5-1.4-.5-.4 0-.8.1-1 .2-.3.1-.5.3-.7.5-.2.2-.3.4-.3.7-.1.2-.1.4-.1.6h4.3c-.3-.7-.5-1.2-.8-1.5zm7.3-2.2v1.3c.3-.6.8-1 1.3-1.2.5-.3 1.1-.4 1.6-.4.7 0 1.3.1 1.7.3.4.2.8.5 1.1.8.3.3.4.7.5 1.2.1.5.2 1 .2 1.6v5.9h-2.6v-5.4c0-.8-.1-1.4-.4-1.8-.2-.4-.7-.6-1.3-.6-.7 0-1.2.2-1.5.6-.3.4-.5 1.1-.5 2.1v5h-2.6v-9.4h2.5zm8.5-1.5v-2.2h2.6v2.2h-2.6zm2.6 1.5v9.5h-2.6v-9.5h2.6zm2.1 2.7c.2-.6.6-1.1 1-1.6.4-.4.9-.8 1.5-1 .6-.2 1.3-.4 2-.4s1.4.1 2 .4c.6.2 1.1.6 1.6 1 .4.4.8 1 1 1.6.2.6.3 1.3.3 2.1s-.1 1.4-.3 2.1c-.2.6-.6 1.1-1 1.6-.4.4-.9.8-1.6 1-.6.2-1.3.3-2 .3s-1.4-.1-2-.3c-.6-.2-1.1-.6-1.5-1-.4-.4-.8-1-1-1.6-.2-.6-.3-1.3-.3-2.1-.1-.8.1-1.5.3-2.1zm2.4 3.1c.1.4.2.7.4 1 .2.3.4.5.7.7.3.2.7.3 1.1.3.4 0 .8-.1 1.1-.3.3-.2.5-.4.7-.7.2-.3.3-.6.4-1 .1-.4.1-.7.1-1.1 0-.4 0-.8-.1-1.1-.1-.4-.2-.7-.4-1-.2-.3-.4-.5-.7-.7-.3-.2-.7-.3-1.1-.3-.4 0-.8.1-1.1.3-.3.2-.5.4-.7.7-.2.3-.3.6-.4 1-.1.4-.1.7-.1 1.1 0 .4 0 .8.1 1.1zm15.2 3.7v-1.3h-.1c-.3.6-.8 1-1.3 1.2-.5.2-1.1.4-1.6.4-.7 0-1.3-.1-1.7-.3-.4-.2-.8-.4-1.1-.8-.3-.3-.4-.7-.5-1.2-.1-.5-.2-1-.2-1.6v-5.9h2.7v5.4c0 .8.1 1.4.4 1.8.2.4.7.6 1.3.6.7 0 1.2-.2 1.5-.6.3-.4.5-1.1.5-2.1v-5h2.6v9.5h-2.5zm6.7-2.4c.1.2.3.4.5.5l.6.3c.2.1.5.1.7.1.2 0 .4 0 .6-.1.2 0 .4-.1.6-.2.2-.1.3-.2.4-.4.1-.2.2-.3.2-.6 0-.4-.3-.7-.8-.9-.5-.2-1.2-.4-2.2-.6-.4-.1-.8-.2-1.1-.3-.4-.1-.7-.3-1-.5-.3-.2-.5-.4-.7-.7-.2-.3-.3-.6-.3-1.1 0-.6.1-1.1.4-1.5.2-.4.6-.7.9-.9.4-.2.8-.4 1.3-.5.5-.1 1-.1 1.5-.1s1 0 1.5.1.9.3 1.3.5.7.5.9.9c.3.4.4.9.5 1.5h-2.5c0-.5-.2-.8-.6-1-.3-.2-.7-.3-1.2-.3h-.5l-.5.1-.4.3c-.1.1-.1.3-.1.5s.1.4.3.6c.2.1.4.3.7.4.3.1.6.2.9.2.4.1.7.2 1.1.2.4.1.8.2 1.1.3.4.1.7.3 1 .5.3.2.5.5.7.8.2.3.3.7.3 1.1 0 .6-.1 1.2-.4 1.6-.3.4-.6.8-1 1-.4.3-.9.4-1.4.5-.5.1-1.1.2-1.6.2-.6 0-1.1-.1-1.6-.2s-1-.3-1.4-.6c-.4-.3-.7-.6-1-1-.3-.4-.4-1-.4-1.6h2.5c0 .5.1.7.2.9zm10.4-10.8v13.1h-2.6v-13.1h2.6zm5.6 16c-.5.3-1.2.5-2.1.5h-.8c-.3 0-.5 0-.8-.1v-2.2c.2 0 .5 0 .8.1h.8c.3 0 .6-.2.8-.4.2-.2.2-.5.2-.8 0-.2 0-.4-.1-.6l-3.4-8.8h2.8l2.2 6.5 2.1-6.5h2.7l-4 10.7c-.3.7-.7 1.3-1.2 1.6zm13.3-5.2c.1.2.3.4.5.5l.6.3c.2.1.5.1.7.1.2 0 .4 0 .6-.1.2 0 .4-.1.6-.2.2-.1.3-.2.4-.4.1-.2.2-.3.2-.6 0-.4-.3-.7-.8-.9-.5-.2-1.2-.4-2.2-.6-.4-.1-.8-.2-1.1-.3-.4-.1-.7-.3-1-.5-.3-.2-.5-.4-.7-.7-.2-.3-.3-.6-.3-1.1 0-.6.1-1.1.4-1.5.2-.4.6-.7.9-.9.4-.2.8-.4 1.3-.5.5-.1 1-.1 1.5-.1s1 0 1.5.1.9.3 1.3.5.7.5.9.9c.3.4.4.9.5 1.5h-2.5c0-.5-.2-.8-.6-1-.3-.2-.7-.3-1.2-.3h-.5l-.5.1-.4.3c-.1.1-.1.3-.1.5s.1.4.3.6c.2.1.4.3.7.4.3.1.6.2.9.2.4.1.7.2 1.1.2.4.1.8.2 1.1.3.4.1.7.3 1 .5.3.2.5.5.7.8.2.3.3.7.3 1.1 0 .6-.1 1.2-.4 1.6-.3.4-.6.8-1 1-.4.3-.9.4-1.4.5-.5.1-1.1.2-1.6.2-.6 0-1.1-.1-1.6-.2s-1-.3-1.4-.6c-.4-.3-.7-.6-1-1-.3-.4-.4-1-.4-1.6h2.5c.1.5.1.7.2.9zm7.8-8.6v-2.2h2.6v2.2h-2.6zm2.6 1.5v9.5h-2.6v-9.5h2.6zm4.6 0v1.3c.3-.5.8-.9 1.2-1.1.5-.3 1-.4 1.7-.4.6 0 1.2.1 1.6.3.5.2.9.6 1.1 1.2.3-.4.7-.8 1.2-1.1.5-.3 1.1-.5 1.7-.5.5 0 1 .1 1.4.2.4.1.8.3 1.1.6.3.3.5.6.7 1.1.2.4.3 1 .3 1.6v6.4h-2.6v-6.3c0-.3-.1-.5-.2-.7-.1-.2-.3-.4-.5-.5-.2-.1-.5-.2-.9-.2s-.7.1-.9.2c-.2.1-.4.3-.5.6-.1.2-.2.5-.3.8l-.1.9v5.3h-2.6v-6.1c0-.3-.1-.5-.2-.8-.1-.2-.2-.4-.5-.6-.2-.1-.5-.2-.9-.2-.1 0-.3 0-.5.1l-.6.3c-.2.2-.4.4-.5.7-.1.3-.2.7-.2 1.1v5.5h-2.6v-9.7h2.6zm16.6 0v1.2c.3-.5.7-.9 1.2-1.1.5-.2 1-.3 1.6-.3.7 0 1.4.1 1.9.4.5.3 1 .7 1.3 1.1.4.5.6 1 .8 1.6.2.6.3 1.3.3 1.9 0 .6-.1 1.3-.3 1.8-.2.6-.4 1.1-.8 1.6-.3.5-.8.8-1.3 1.1-.5.3-1.1.4-1.8.4-.6 0-1.1-.1-1.6-.4-.5-.2-.9-.6-1.2-1.1v4.5h-2.5v-12.7h2.4zm3.4 7.5c.3-.2.5-.4.7-.7.2-.3.3-.6.4-1 .1-.4.1-.7.1-1.1 0-.4 0-.8-.1-1.1-.1-.4-.2-.7-.4-1-.2-.3-.4-.5-.7-.7-.3-.2-.6-.3-1.1-.3-.4 0-.8.1-1.1.3-.3.2-.5.4-.7.7-.2.3-.3.6-.4 1-.1.4-.1.7-.1 1.1 0 .4 0 .8.1 1.1.1.4.2.7.4 1 .2.3.4.5.7.7.3.2.7.3 1.1.3.5 0 .9-.1 1.1-.3zm8.1-11.2v13.1h-2.6v-13.1h2.6zm4.9 10.9c.4.4 1 .6 1.7.6.5 0 1-.1 1.4-.4.4-.3.6-.5.7-.8h2.3c-.4 1.1-.9 2-1.7 2.4-.8.5-1.7.7-2.8.7-.7 0-1.4-.1-2-.4-.6-.2-1.1-.6-1.5-1-.4-.4-.7-1-1-1.6-.2-.6-.3-1.3-.3-2s.1-1.4.3-2c.2-.6.6-1.1 1-1.6.4-.4.9-.8 1.5-1.1.6-.3 1.3-.4 2-.4.8 0 1.5.2 2.1.5.6.3 1.1.7 1.5 1.3.4.5.7 1.1.8 1.8.2.7.2 1.4.2 2.1h-6.9c.1.9.3 1.5.7 1.9zm2.9-5c-.3-.3-.8-.5-1.4-.5-.4 0-.8.1-1 .2-.3.1-.5.3-.7.5-.2.2-.3.4-.3.7-.1.2-.1.4-.1.6h4.3c-.3-.7-.5-1.2-.8-1.5z"/><path d="M105.9 45.3c-5.4 0-9.9-4.4-9.9-9.9v-3.3c0-5.5 4.4-9.9 9.9-9.9h7.8v-2.9c0-3-2.4-5.4-5.4-5.4h-2.4c-2.1 0-4 1.2-4.9 3.1-.1.2-.2.3-.4.4h-.2c-.1 0-.2 0-.3-.1l-2.7-1.5c-.3-.2-.4-.6-.3-.9 1.7-3.4 5.1-5.5 8.8-5.5h2.4c5.4 0 9.9 4.4 9.9 9.9v16.1c0 5.4-4.4 9.9-9.9 9.9h-2.4zm0-18.6c-3 0-5.4 2.4-5.4 5.4v3.4c0 3 2.4 5.4 5.4 5.4h2.4c3 0 5.4-2.4 5.4-5.4v-8.8h-7.8zm42.8 18.6c-2.7 0-5.1-1-7-3-1.9-1.9-2.9-4.6-2.9-7.5v-16c0-2.4 1.1-4.7 2.9-6.5 1.9-1.8 4.4-2.8 7-2.8h2.4c5.4 0 9.9 4.4 9.9 9.9v2.6c0 5.5-4.4 9.9-9.9 9.9h-7.8v3.5c0 3 2.4 5.4 5.4 5.4h2.4c2 0 3.8-1.1 4.7-2.9.1-.2.2-.3.4-.3h.2c.1 0 .2 0 .3.1l2.7 1.5c.3.2.4.6.3.9-1.7 3.2-5 5.1-8.6 5.1h-2.4zm0-31.4c-3 0-5.4 2.4-5.4 5.4v8.2h7.8c3 0 5.4-2.4 5.4-5.4v-2.8c0-3-2.4-5.4-5.4-5.4h-2.4zm-69.4 42.6c-3.6 0-6.9-2-8.7-5.2-.2-.3-.1-.7.3-.9l2.7-1.5c.1-.1.2-.1.3-.1h.2c.2.1.3.2.4.3.9 1.8 2.8 2.9 4.8 2.9h2.4c3 0 5.4-2.4 5.4-5.4v-3l-.2.1c-1.6 1-3.4 1.5-5.2 1.5h-2.4c-5.4 0-9.9-4.4-9.9-9.9v-16c0-5.4 4.4-9.9 9.9-9.9h2.4c5.4 0 9.9 4.4 9.9 9.9v27.4c0 5.4-4.4 9.9-9.9 9.9h-2.4zm0-42.6c-3 0-5.4 2.4-5.4 5.4v16.1c0 3 2.4 5.4 5.4 5.4h2.4c3 0 5.4-2.4 5.4-5.4v-16.1c0-3-2.4-5.4-5.4-5.4h-2.4zm-53.1 31.4c-2.7 0-5.1-1-7-3-1.9-1.9-2.9-4.6-2.9-7.5v-16c0-2.4 1.1-4.7 2.9-6.5 1.9-1.8 4.4-2.8 7-2.8h2.4c5.4 0 9.9 4.4 9.9 9.9v2.6c0 5.5-4.4 9.9-9.9 9.9h-7.8v3.5c0 3 2.4 5.4 5.4 5.4h2.4c1.8 0 3.5-.9 4.5-2.5.1-.2.4-.3.6-.3.1 0 .2 0 .3.1l2.7 1.5c.2.1.3.2.3.4s0 .4-.1.5c-1.8 3-5 4.7-8.4 4.7h-2.3zm0-31.4c-3 0-5.4 2.4-5.4 5.4v8.2h7.8c3 0 5.4-2.4 5.4-5.4v-2.8c0-3-2.4-5.4-5.4-5.4h-2.4zm106.2 31.4c-5.4 0-9.9-4.4-9.9-9.9v-31.6c0-1.1.9-2 2-2h1.7c.4 0 .7.3.7.7v7h6.7c.4 0 .7.3.7.7v3.1c0 .4-.3.7-.7.7h-6.7v21.5c0 3 2.4 5.4 5.4 5.4h2.8c.4 0 .7.3.7.7v3.1c0 .4-.3.7-.7.7h-2.7zm-79.7 0c-5.4 0-9.8-4.4-9.8-9.9v-16.1c0-5.4 4.4-9.9 9.8-9.9h2.4c1.8 0 3.6.5 5.2 1.5l.2.1v-9c0-1.1.9-2 2-2h1.8c.4 0 .7.3.7.7v34.8c0 5.4-4.4 9.9-9.8 9.9h-2.5zm0-31.4c-3 0-5.4 2.4-5.4 5.4v16.1c0 3 2.4 5.4 5.4 5.4h2.4c3 0 5.4-2.4 5.4-5.4v-16.1c0-3-2.4-5.4-5.4-5.4h-2.4zm-52 31.4c-.4 0-.7-.3-.7-.7v-25.3c0-5.4 4.4-9.9 9.9-9.9h4.2c.4 0 .7.3.7.7v1.8c0 1.1-.9 2-2 2h-2.9c-3 0-5.4 2.4-5.4 5.4v25.3c0 .4-.3.7-.7.7h-3.1z"/></svg>